<svg width="87" height="49" viewBox="0 0 87 49" fill="none" xmlns="http://www.w3.org/2000/svg">
<path d="M48.1655 36.327L53.3898 22.2548V37.6859C53.3898 38.1992 53.8125 38.6522 54.3259 38.6522H57.7081C58.2214 38.6522 58.6442 38.2294 58.6442 37.6859V12.1989C58.6442 11.6855 58.2214 11.2326 57.7081 11.2326H53.2388C52.8462 11.2326 52.4838 11.4741 52.3328 11.8667L45.9309 29.1399L39.7403 11.8667C39.5893 11.4741 39.2572 11.2326 38.8344 11.2326H33.8216C33.3082 11.2326 32.8552 11.6553 32.8552 12.1989V37.6859C32.8552 38.1992 33.278 38.6522 33.8216 38.6522H36.9319C37.4453 38.6522 37.8983 38.2294 37.8983 37.6859V22.3756L42.8809 36.2968C43.0017 36.6893 43.3641 36.9309 43.7868 36.9309H47.2596C47.6824 36.9611 48.0447 36.7195 48.1655 36.327Z" fill="#009FDA"/>
<path d="M82.4099 38.6522H86.0337C86.5471 38.6522 87 38.2294 87 37.6859V12.1989C87 11.6855 86.5773 11.2326 86.0337 11.2326H82.4099C81.8966 11.2326 81.4738 11.6553 81.4738 12.1989V37.6859C81.4436 38.2294 81.8664 38.6522 82.4099 38.6522Z" fill="#009FDA"/>
<path d="M77.5179 26.5127C77.0951 25.8483 75.2229 23.9459 71.1763 21.832C68.8209 20.5939 66.9185 19.4766 66.8279 17.8157C66.7675 17.3627 67.0392 15.1583 70.2704 15.1885C72.2333 15.1885 73.8036 15.9132 75.9476 16.7286C76.7328 16.94 77.3367 16.3662 77.3367 15.7924V12.4405C77.3367 11.9875 77.0347 11.5949 76.612 11.4741C75.3135 11.0816 72.7466 10.4474 70.1496 10.4474C64.8952 10.4474 63.1135 13.4672 62.5398 14.2523C61.4828 15.9132 60.4863 19.2954 62.7813 22.587C65.469 25.9993 71.0556 27.6904 72.656 29.774C73.0788 30.3176 73.8036 32.3711 72.2031 33.7904C71.2669 34.7265 69.4249 34.9681 66.9487 34.4245C66.0427 34.2131 64.5328 33.6394 62.6304 32.7636C62.117 32.522 61.2111 32.8844 61.2111 33.6696V37.2933C61.2111 37.7161 61.5432 38.1388 61.966 38.2596C68.2774 40.1621 73.26 39.7997 76.3704 36.9309C79.3298 34.1527 79.7223 29.8042 77.5179 26.5127Z" fill="#009FDA"/>
<path d="M26.0305 12.9538C26.0305 13.0746 25.94 13.1954 25.789 13.1954H0.241583C0.120791 13.1954 0 13.0746 0 12.9538V11.3836C0 11.2628 0.0905935 11.142 0.241583 11.142H25.8192C25.94 11.142 26.0607 11.2326 26.0607 11.3836V12.9538H26.0305Z" fill="#858585"/>
<path d="M5.34502 17.2117C5.34502 17.3325 5.22423 17.4533 5.10344 17.4533H0.241583C0.0905935 17.4533 0 17.3325 0 17.2117V14.192C0 14.0712 0.0905935 13.9504 0.241583 13.9504H5.10344C5.22423 13.9504 5.34502 14.0712 5.34502 14.192V17.2117Z" fill="#858585"/>
<path d="M5.34502 38.4106C5.34502 38.5314 5.22423 38.6522 5.10344 38.6522H0.241583C0.120791 38.6522 0 38.5314 0 38.4106V35.421C0 35.3002 0.0905935 35.1795 0.241583 35.1795H5.10344C5.22423 35.1795 5.34502 35.27 5.34502 35.421V38.4106Z" fill="#858585"/>
<path d="M20.7157 17.2117C20.7157 17.3325 20.8365 17.4533 20.9573 17.4533H25.8192C25.94 17.4533 26.0608 17.3325 26.0608 17.2117V14.192C26.0608 14.0712 25.9702 13.9504 25.8192 13.9504H20.9271C20.8063 13.9504 20.6855 14.0712 20.6855 14.192V17.2117H20.7157Z" fill="#858585"/>
<path d="M20.7157 38.4106C20.7157 38.5314 20.8365 38.6522 20.9573 38.6522H25.8192C25.94 38.6522 26.0608 38.5314 26.0608 38.4106V35.421C26.0608 35.3002 25.9702 35.1795 25.8192 35.1795H20.9271C20.8063 35.1795 20.6855 35.27 20.6855 35.421V38.4106H20.7157Z" fill="#858585"/>
<path d="M23.9771 18.4498C23.9771 18.3291 23.8563 18.2083 23.7355 18.2083H20.9271C20.8063 18.2083 20.6855 18.3291 20.6855 18.4498V34.1527C20.6855 34.2735 20.8063 34.3943 20.9271 34.3943H23.7355C23.8563 34.3943 23.9771 34.2735 23.9771 34.1527V18.4498Z" fill="#858585"/>
<path d="M5.34503 18.4498C5.34503 18.3291 5.22424 18.2083 5.10345 18.2083H2.29505C2.17426 18.2083 2.05347 18.3291 2.05347 18.4498V34.1527C2.05347 34.2735 2.17426 34.3943 2.29505 34.3943H5.07325C5.19404 34.3943 5.31483 34.2735 5.31483 34.1527V18.4498H5.34503Z" fill="#858585"/>
<path d="M17.0316 16.185L7.3381 13.9806C7.09652 13.9202 6.88513 14.1014 6.88513 14.3429V38.2898C6.88513 38.5616 7.09652 38.7126 7.3381 38.6522L17.0316 36.0854C17.2732 36.025 17.4846 35.7532 17.4846 35.4814V16.789C17.5148 16.5172 17.3034 16.2454 17.0316 16.185ZM9.08958 27.932C9.08958 28.8983 9.08958 35.8438 9.08958 36.1156C9.08958 36.5082 8.30443 37.1121 8.30443 37.1121V27.9622V27.2978L9.08958 27.2676C9.87472 27.2374 10.9316 27.2072 11.2336 27.177C11.6866 27.1468 12.1396 27.7508 12.1396 27.7508L9.08958 27.932ZM9.08958 22.0434C9.08958 23.0097 9.08958 25.1236 9.08958 25.3954C9.08958 25.7879 8.30443 26.2409 8.30443 26.2409V22.0132V21.3488L9.08958 21.4092C9.87472 21.4696 10.9316 21.5602 11.2336 21.5904C11.6866 21.6206 12.1396 22.285 12.1396 22.285L9.08958 22.0434ZM9.08958 16.185C9.08958 17.1513 9.08958 19.2652 9.08958 19.537C9.08958 19.9295 8.30443 20.2617 8.30443 20.2617V16.034V15.3697L9.08958 15.5207C9.87472 15.6717 10.9316 15.883 11.2336 15.9434C11.6866 16.034 12.1396 16.7286 12.1396 16.7286L9.08958 16.185ZM14.2836 27.6602C14.2836 28.5359 14.2836 34.7567 14.2836 34.9983C14.2836 35.3606 13.6494 35.874 13.6494 35.874V27.6904V27.0864L14.2836 27.0562C14.9178 27.026 15.7935 26.9958 16.0049 26.9958C16.3673 26.9958 16.7296 27.5092 16.7296 27.5092L14.2836 27.6602ZM14.2836 22.4058C14.2836 23.2815 14.2836 25.184 14.2836 25.4558C14.2836 25.8181 13.6494 26.2107 13.6494 26.2107V22.3756V21.7716L14.2836 21.832C14.9178 21.8924 15.7935 21.9528 16.0049 21.983C16.3673 22.0132 16.7296 22.587 16.7296 22.587L14.2836 22.4058ZM14.2836 17.1513C14.2836 17.9969 14.2836 19.9295 14.2836 20.2013C14.2836 20.5637 13.6494 20.8657 13.6494 20.8657V17.0306V16.4266L14.2836 16.5474C14.9178 16.6682 15.7935 16.8494 16.0049 16.8796C16.3673 16.94 16.7296 17.5741 16.7296 17.5741L14.2836 17.1513Z" fill="#009FDA"/>
<path d="M9.54256 10.3568H16.6089C16.6995 10.3568 16.79 10.2662 16.79 10.1454C16.6693 8.21278 15.0386 6.64249 13.0455 6.64249C11.0525 6.64249 9.42177 8.21278 9.33118 10.1756C9.36137 10.2662 9.42177 10.3568 9.54256 10.3568Z" fill="#009FDA"/>
<path d="M12.5019 0.753911C12.4717 0.723714 12.4113 0.693516 12.3207 0.693516C10.992 0.753911 9.72369 1.11629 8.57617 1.72024C8.51578 1.75044 8.48558 1.81084 8.45538 1.87123C8.42518 1.93163 8.45538 1.99202 8.48558 2.05242L10.841 5.94794C10.8712 6.00834 10.9618 6.06873 11.0222 6.06873C11.0524 6.06873 11.0826 6.06873 11.1128 6.03854C11.5054 5.85735 11.9281 5.73656 12.3509 5.67616C12.4717 5.67616 12.5623 5.55537 12.5623 5.46478V0.935099C12.5925 0.874703 12.5623 0.814307 12.5019 0.753911Z" fill="#858585"/>
<path d="M8.54603 8.36377L4.52972 6.21972C4.46932 6.18952 4.40893 6.18952 4.34853 6.21972C4.28814 6.24992 4.25794 6.28012 4.22774 6.34051C3.65398 7.54843 3.3822 8.81674 3.3822 10.1454C3.3822 10.2058 3.4124 10.2662 3.4426 10.2964C3.4728 10.3266 3.53319 10.3568 3.59359 10.3568H8.15346C8.27425 10.3568 8.36485 10.2662 8.36485 10.1454C8.36485 9.63208 8.45544 9.14891 8.66683 8.66575C8.69702 8.54496 8.66682 8.42416 8.54603 8.36377Z" fill="#858585"/>
<path d="M10.1465 6.34051L7.79107 2.44499C7.76087 2.38459 7.70048 2.3544 7.64008 2.3544C7.57969 2.3544 7.51929 2.3544 7.4589 2.38459C6.37177 3.10934 5.43564 4.07567 4.77129 5.22319C4.74109 5.28359 4.74109 5.34398 4.74109 5.40438C4.77129 5.46477 4.80148 5.52517 4.86188 5.55537L8.90839 7.69942C8.93859 7.72961 8.96879 7.72961 8.99899 7.72961C9.05938 7.72961 9.14997 7.69942 9.18017 7.63902C9.42176 7.27665 9.72373 6.97467 10.0861 6.70289C10.1767 6.5821 10.2069 6.43111 10.1465 6.34051Z" fill="#858585"/>
<path d="M21.2593 5.22319C20.595 4.10587 19.6588 3.13954 18.6019 2.41479C18.5415 2.3846 18.4811 2.3544 18.4207 2.3846C18.3603 2.3846 18.2999 2.44499 18.2697 2.50539L15.9445 6.34051C15.8841 6.43111 15.9143 6.5519 16.0049 6.64249C16.3673 6.91427 16.6693 7.21625 16.9108 7.57863C16.941 7.63902 17.0316 7.66922 17.092 7.66922C17.1222 7.66922 17.1524 7.66922 17.1826 7.63902L21.1687 5.52517C21.2291 5.49497 21.2593 5.43458 21.2895 5.37418C21.3197 5.34398 21.2895 5.28359 21.2593 5.22319Z" fill="#858585"/>
<path d="M17.6356 1.90143C17.6054 1.84103 17.5752 1.78064 17.5148 1.75044C16.3673 1.11629 15.099 0.784109 13.7703 0.693516C13.7099 0.693516 13.6495 0.723714 13.5891 0.753911C13.5589 0.784109 13.5287 0.844505 13.5287 0.904901V5.43458C13.5287 5.55537 13.6193 5.64596 13.7401 5.64596C14.1628 5.70636 14.5856 5.79695 14.9782 6.00834C15.0084 6.00834 15.0386 6.03854 15.0688 6.03854C15.1594 6.03854 15.2198 6.00834 15.25 5.91774L17.5752 2.05242C17.6356 2.02222 17.6356 1.96183 17.6356 1.90143Z" fill="#858585"/>
<path d="M21.8331 6.37071C21.8029 6.31032 21.7727 6.28012 21.7123 6.24992C21.6519 6.21972 21.5915 6.24992 21.5311 6.24992L17.545 8.36377C17.4544 8.42417 17.394 8.54496 17.4544 8.63555C17.6356 9.11872 17.7563 9.60188 17.7563 10.1152C17.7563 10.236 17.8469 10.3266 17.9677 10.3266H22.437C22.4974 10.3266 22.5578 10.2964 22.588 10.2662C22.6182 10.236 22.6484 10.1756 22.6484 10.1152C22.6786 8.81674 22.4068 7.54843 21.8331 6.37071Z" fill="#858585"/>
<path d="M27.7216 2.294H32.5532C32.7042 2.294 32.825 2.41479 32.825 2.56578V3.41132C32.825 3.56231 32.7042 3.6831 32.5532 3.6831H29.2919C29.1409 3.6831 29.0201 3.80389 29.0201 3.95488V4.92121C29.0201 5.0722 29.1409 5.193 29.2919 5.193H32.1003C32.2513 5.193 32.3721 5.31379 32.3721 5.46478V6.34051C32.3721 6.4915 32.2513 6.61229 32.1003 6.61229H29.2919C29.1409 6.61229 29.0201 6.73309 29.0201 6.88407V9.05832C29.0201 9.20931 28.8993 9.3301 28.7483 9.3301H27.7518C27.6008 9.3301 27.48 9.20931 27.48 9.05832V2.56578C27.4498 2.41479 27.5706 2.294 27.7216 2.294Z" fill="#858585"/>
<path d="M36.479 9.51129C35.5127 9.51129 34.7879 9.23951 34.2141 8.72614C33.6706 8.21278 33.3988 7.39744 33.3988 6.37071V2.56578C33.3988 2.41479 33.5196 2.294 33.6706 2.294H34.6671C34.8181 2.294 34.9389 2.41479 34.9389 2.56578V6.31032C34.9389 6.88408 35.0597 7.33704 35.3315 7.63902C35.6032 7.941 35.9656 8.09199 36.4488 8.09199C36.932 8.09199 37.2943 7.941 37.5661 7.66922C37.8379 7.39744 37.9587 6.94447 37.9587 6.40091V2.56578C37.9587 2.41479 38.0795 2.294 38.2305 2.294H39.227C39.378 2.294 39.4988 2.41479 39.4988 2.56578V6.28012C39.4988 6.82368 39.4384 7.30685 39.2874 7.69942C39.1364 8.09199 38.925 8.42417 38.6532 8.69595C38.3814 8.96773 38.0493 9.14891 37.6567 9.2999C37.3849 9.42069 36.9622 9.51129 36.479 9.51129Z" fill="#858585"/>
<path d="M40.8879 2.294H41.9146C42.0052 2.294 42.0958 2.3242 42.1562 2.41479L44.874 6.00834C45.025 6.21972 45.3873 6.09893 45.3873 5.82715V2.56578C45.3873 2.41479 45.5081 2.294 45.6591 2.294H46.6255C46.7764 2.294 46.8972 2.41479 46.8972 2.56578V9.08852C46.8972 9.23951 46.7764 9.3603 46.6255 9.3603H45.7195C45.6289 9.3603 45.5383 9.3301 45.4779 9.23951L42.6393 5.49497C42.4884 5.28359 42.126 5.40438 42.126 5.67616V9.05832C42.126 9.20931 42.0052 9.3301 41.8542 9.3301H40.8879C40.7369 9.3301 40.6161 9.20931 40.6161 9.05832V2.56578C40.6161 2.41479 40.7369 2.294 40.8879 2.294Z" fill="#858585"/>
<path d="M48.0447 2.56578C48.0447 2.41479 48.1655 2.294 48.3165 2.294H50.7927C51.3362 2.294 51.8496 2.3846 52.3328 2.56578C52.7857 2.74697 53.2085 2.98855 53.5407 3.32073C53.8729 3.65291 54.1446 4.01528 54.3258 4.43805C54.507 4.86082 54.5976 5.34398 54.5976 5.82715V5.85735C54.5976 6.37071 54.507 6.82368 54.3258 7.24645C54.1446 7.66922 53.8729 8.06179 53.5407 8.36377C53.2085 8.69595 52.8159 8.93753 52.3328 9.11872C51.8798 9.2999 51.3664 9.3905 50.7927 9.3905H48.3165C48.1655 9.3905 48.0447 9.26971 48.0447 9.11872V2.56578ZM50.8229 7.9712C51.1551 7.9712 51.4268 7.9108 51.6986 7.82021C51.9704 7.72961 52.1818 7.57863 52.363 7.39744C52.5442 7.21625 52.6951 6.97467 52.7857 6.73309C52.8763 6.46131 52.9367 6.18952 52.9367 5.85735V5.82715C52.9367 5.52517 52.8763 5.22319 52.7857 4.95141C52.6951 4.67963 52.5442 4.46825 52.363 4.25686C52.1818 4.07568 51.9402 3.92469 51.6986 3.80389C51.4268 3.7133 51.1551 3.65291 50.8229 3.65291H49.8867C49.7358 3.65291 49.615 3.7737 49.615 3.92469V7.63902C49.615 7.79001 49.7358 7.9108 49.8867 7.9108H50.8229V7.9712Z" fill="#858585"/>
<path d="M58.0402 2.23361H59.0972C59.2179 2.23361 59.3085 2.294 59.3689 2.41479L62.1773 8.99792C62.2679 9.17911 62.1169 9.3905 61.9056 9.3905H60.909C60.7882 9.3905 60.6976 9.3301 60.6372 9.20931L60.1239 7.9712C60.0937 7.85041 59.9729 7.79001 59.8521 7.79001H57.2249C57.1041 7.79001 57.0135 7.85041 56.9531 7.9712L56.4397 9.20931C56.4095 9.3301 56.2888 9.3905 56.168 9.3905H55.2016C54.9903 9.3905 54.8695 9.17911 54.9299 8.99792L57.7685 2.41479C57.8288 2.294 57.9194 2.23361 58.0402 2.23361ZM59.3387 6.00834L58.8254 4.74003C58.7348 4.49844 58.4026 4.49844 58.312 4.74003L57.7986 6.00834C57.7081 6.18952 57.859 6.40091 58.0704 6.40091H59.0972C59.2783 6.40091 59.3991 6.21972 59.3387 6.00834Z" fill="#858585"/>
<path d="M66.1937 9.51129C65.6803 9.51129 65.1972 9.42069 64.7442 9.23951C64.2912 9.05832 63.8987 8.78654 63.5967 8.45436C63.2645 8.12219 63.0229 7.72961 62.8417 7.30684C62.6605 6.85388 62.5699 6.37071 62.5699 5.88755V5.85735C62.5699 5.34398 62.6605 4.86082 62.8417 4.43805C63.0229 3.98508 63.2645 3.59251 63.5967 3.26033C63.9289 2.92816 64.3214 2.65638 64.7744 2.47519C65.2274 2.294 65.7407 2.17321 66.2843 2.17321C66.6165 2.17321 66.9184 2.20341 67.1902 2.2638C67.462 2.3242 67.7036 2.3846 67.9452 2.47519C68.1565 2.56578 68.3679 2.68657 68.5793 2.80737C68.7001 2.89796 68.7907 2.95835 68.8813 3.04895C69.0021 3.13954 69.0021 3.32073 68.9115 3.44152L68.2773 4.16627C68.1867 4.28706 68.0056 4.28706 67.8848 4.19647C67.6734 4.01528 67.462 3.89449 67.2506 3.7737C66.9486 3.62271 66.6467 3.56231 66.2843 3.56231C65.9823 3.56231 65.7105 3.62271 65.4689 3.7435C65.2274 3.86429 64.9858 4.01528 64.8046 4.22666C64.6234 4.43805 64.4724 4.67963 64.3818 4.92121C64.2912 5.19299 64.2308 5.46478 64.2308 5.76675V5.79695C64.2308 6.09893 64.2912 6.40091 64.3818 6.67269C64.4724 6.94447 64.6234 7.18605 64.8046 7.39744C64.9858 7.60882 65.1972 7.75981 65.4689 7.8806C65.7105 8.0014 66.0125 8.06179 66.3145 8.06179C66.7071 8.06179 67.0694 8.00139 67.3412 7.85041C67.5526 7.72961 67.764 7.57862 67.9754 7.39744C68.0962 7.30684 68.2471 7.30684 68.3679 7.42764L68.9719 8.03159C69.0927 8.15238 69.0927 8.33357 68.9719 8.42416C68.8511 8.54496 68.7303 8.63555 68.6095 8.75634C68.3981 8.90733 68.1867 9.05832 67.9754 9.14891C67.764 9.23951 67.4922 9.3603 67.2204 9.3905C66.858 9.48109 66.5259 9.51129 66.1937 9.51129Z" fill="#858585"/>
<path d="M70.1193 2.294H71.1158C71.2668 2.294 71.3876 2.41479 71.3876 2.56578V9.08852C71.3876 9.23951 71.2668 9.3603 71.1158 9.3603H70.1193C69.9683 9.3603 69.8475 9.23951 69.8475 9.08852V2.56578C69.8475 2.41479 69.9683 2.294 70.1193 2.294Z" fill="#858585"/>
<path d="M76.0683 9.51129C75.5247 9.51129 75.0114 9.42069 74.5584 9.20931C74.1054 9.02812 73.7129 8.75634 73.3505 8.42416C73.0183 8.09199 72.7465 7.69942 72.5654 7.27665C72.3842 6.82368 72.2936 6.37071 72.2936 5.85735V5.82715C72.2936 5.31379 72.3842 4.83062 72.5654 4.40785C72.7465 3.95488 73.0183 3.56231 73.3505 3.23014C73.6827 2.89796 74.0753 2.62618 74.5584 2.44499C75.0114 2.2638 75.5247 2.14301 76.0683 2.14301C76.6119 2.14301 77.1252 2.23361 77.5782 2.44499C78.0312 2.62618 78.4237 2.89796 78.7861 3.23014C79.1183 3.56231 79.3901 3.95488 79.5713 4.37765C79.7524 4.83062 79.843 5.28359 79.843 5.79695V5.82715C79.843 6.34051 79.7524 6.82368 79.5713 7.24645C79.3901 7.69942 79.1183 8.09199 78.7861 8.42416C78.4539 8.75634 78.0614 9.02812 77.5782 9.20931C77.095 9.42069 76.6119 9.51129 76.0683 9.51129ZM76.0683 8.06179C76.3703 8.06179 76.6723 8.0014 76.9441 7.8806C77.2158 7.75981 77.4272 7.60882 77.6084 7.39744C77.7896 7.18605 77.9406 6.94447 78.0312 6.70289C78.1218 6.43111 78.1822 6.15933 78.1822 5.85735V5.82715C78.1822 5.52517 78.1218 5.22319 78.0312 4.95141C77.9406 4.67963 77.7896 4.43805 77.5782 4.22666C77.397 4.01528 77.1554 3.86429 76.8837 3.7435C76.6119 3.62271 76.3401 3.56231 76.0079 3.56231C75.6757 3.56231 75.404 3.62271 75.1322 3.7435C74.8604 3.86429 74.649 4.01528 74.4678 4.22666C74.2866 4.43805 74.1356 4.67963 74.0451 4.92121C73.9545 5.193 73.8941 5.46478 73.8941 5.76675V5.79695C73.8941 6.09893 73.9545 6.40091 74.0451 6.67269C74.1356 6.94447 74.2866 7.18605 74.498 7.39744C74.6792 7.60882 74.9208 7.75981 75.1926 7.8806C75.4644 8.0014 75.7663 8.06179 76.0683 8.06179ZM76.8837 0.0291634L77.5782 0.331142C77.7594 0.421735 77.8198 0.663318 77.6688 0.814308L76.7629 1.65985C76.7025 1.72024 76.6421 1.75044 76.5817 1.75044H76.0381C75.8267 1.75044 75.6757 1.50886 75.7965 1.29747L76.5213 0.149955C76.6119 -0.00103441 76.7629 -0.0312323 76.8837 0.0291634Z" fill="#858585"/>
<path d="M80.9302 2.294H81.957C82.0475 2.294 82.1381 2.3242 82.1985 2.41479L84.9163 6.00834C85.0673 6.21972 85.4297 6.09893 85.4297 5.82715V2.56578C85.4297 2.41479 85.5505 2.294 85.7015 2.294H86.6678C86.8188 2.294 86.9396 2.41479 86.9396 2.56578V9.08852C86.9396 9.23951 86.8188 9.3603 86.6678 9.3603H85.7619C85.6713 9.3603 85.5807 9.3301 85.5203 9.23951L82.6817 5.49497C82.5307 5.28359 82.1683 5.40438 82.1683 5.67616V9.05832C82.1683 9.20931 82.0476 9.3301 81.8966 9.3301H80.9302C80.7792 9.3301 80.6584 9.20931 80.6584 9.05832V2.56578C80.6584 2.41479 80.7792 2.294 80.9302 2.294Z" fill="#858585"/>
<path d="M11.294 46.6848C11.2638 46.6848 11.2638 46.6848 11.2638 46.6848C11.1732 46.715 11.0524 46.7452 10.992 46.7754C10.9316 46.7754 10.8712 46.8056 10.841 46.8056C10.8108 46.8056 10.7806 46.8056 10.7504 46.8056C10.5994 46.8056 10.4485 46.7754 10.3277 46.6848C10.2069 46.5942 10.0861 46.5037 10.0257 46.3225C9.96529 46.1715 9.90489 45.9903 9.90489 45.7789C9.90489 45.5373 9.96529 45.2957 10.0861 45.1146C10.2069 44.9032 10.4183 44.8126 10.69 44.8126C10.841 44.8126 11.0524 44.8428 11.294 44.9334C11.294 44.9334 11.294 44.9334 11.3242 44.9334C11.4148 44.9636 11.4752 44.9032 11.4752 44.8428V44.4804C11.4752 44.4502 11.445 44.3898 11.4148 44.3898C11.4148 44.3898 11.4148 44.3898 11.3846 44.3898H11.3544H11.3242C11.3242 44.3898 11.3242 44.3898 11.294 44.3898C11.2638 44.3898 11.2336 44.3898 11.2034 44.3596C11.1732 44.3596 11.143 44.3596 11.1128 44.3294C11.0826 44.3294 11.0524 44.3294 11.0222 44.3294C10.9014 44.3294 10.7806 44.2992 10.69 44.2992C10.5994 44.2992 10.5692 44.2992 10.4787 44.2992C10.4485 44.2992 10.4183 44.2992 10.4183 44.2992C10.0257 44.3294 9.72371 44.4804 9.51232 44.6918C9.24054 44.9636 9.11975 45.3259 9.11975 45.7789C9.11975 46.2017 9.24054 46.564 9.48212 46.866C9.72371 47.168 10.1163 47.319 10.5994 47.319C10.8108 47.319 11.0222 47.2888 11.2638 47.2586C11.294 47.2586 11.294 47.2586 11.3242 47.2586C11.3544 47.2586 11.4148 47.2284 11.445 47.2284C11.4752 47.2284 11.5054 47.168 11.5054 47.1378V46.7754C11.445 46.715 11.3846 46.6546 11.294 46.6848Z" fill="#858585"/>
<path d="M3.71436 43.3933C3.68417 43.3631 3.68417 43.3631 3.65397 43.3631C3.59357 43.3631 3.56338 43.3631 3.50298 43.3631H3.47278C2.41586 43.3631 1.35893 43.3631 0.332205 43.3631C0.27181 43.3631 0.211414 43.3631 0.151018 43.3631C0.151018 43.3631 0.12082 43.3631 0.0906227 43.3933C0.0604248 43.4235 0.0604248 43.4537 0.0604248 43.4537C0.0604248 43.5745 0.0604248 43.7254 0.0604248 43.8462C0.0604248 43.8462 0.0604248 43.8764 0.0906227 43.8764C0.12082 43.9066 0.151018 43.9066 0.151018 43.9066H0.332205H1.47972V46.9868V47.1076C1.47972 47.1982 1.54012 47.2586 1.63071 47.2586H2.14408C2.23467 47.2586 2.29507 47.1982 2.29507 47.1076V46.9566V44.722V43.8764H3.44258H3.50298H3.62377C3.62377 43.8764 3.65397 43.8764 3.68417 43.8462C3.71436 43.816 3.71436 43.816 3.71436 43.816C3.71436 43.6953 3.71436 43.5443 3.71436 43.4235C3.71436 43.4537 3.71436 43.4235 3.71436 43.3933Z" fill="#858585"/>
<path d="M25.8796 47.3492C25.5475 47.3492 25.2757 47.2888 25.0643 47.168C24.8227 47.0472 24.6717 46.866 24.5509 46.6244C24.4301 46.3829 24.3698 46.1111 24.3698 45.8393C24.3698 45.5373 24.4301 45.2957 24.5509 45.0542C24.6717 44.8126 24.8529 44.6314 25.0643 44.5106C25.3059 44.3898 25.5777 44.3294 25.8796 44.3294C26.2118 44.3294 26.4836 44.3898 26.695 44.5106C26.9064 44.6314 27.0876 44.8126 27.2083 45.0542C27.3291 45.2957 27.3895 45.5675 27.3895 45.8393C27.3895 46.1413 27.3291 46.3829 27.2083 46.6244C27.0876 46.866 26.9064 47.0472 26.695 47.168C26.4534 47.2888 26.1816 47.3492 25.8796 47.3492ZM25.8796 46.866C26.091 46.866 26.2722 46.7754 26.393 46.564C26.5138 46.3527 26.5742 46.1111 26.5742 45.8393C26.5742 45.5373 26.5138 45.2957 26.393 45.1145C26.2722 44.9334 26.1212 44.8126 25.8796 44.8126C25.6683 44.8126 25.4871 44.9032 25.3663 45.1145C25.2455 45.2957 25.1851 45.5675 25.1851 45.8393C25.1851 46.1413 25.2455 46.3829 25.3663 46.564C25.4871 46.7452 25.6381 46.866 25.8796 46.866Z" fill="#858585"/>
<path d="M28.084 47.2888H27.7518V46.4433H28.5974V47.1076C28.5974 47.3492 28.5672 47.5606 28.5068 47.6814C28.4464 47.8022 28.3558 47.923 28.235 48.0135C28.1142 48.1041 27.933 48.1343 27.7518 48.1343V47.8324C27.8424 47.8324 27.933 47.8022 27.9934 47.7116C28.0538 47.621 28.084 47.5002 28.084 47.3794V47.2888Z" fill="#858585"/>
<path d="M40.435 47.1982C40.0726 47.2888 39.7404 47.3492 39.4385 47.3492C39.1063 47.3492 38.8345 47.2888 38.5929 47.168C38.3513 47.0472 38.1701 46.866 38.0494 46.6244C37.9286 46.3829 37.8682 46.1111 37.8682 45.8091C37.8682 45.5373 37.9286 45.2957 38.0192 45.0542C38.1399 44.8126 38.2909 44.6314 38.5023 44.5106C38.7137 44.3898 38.9553 44.2992 39.2875 44.2992C39.6498 44.2992 39.9518 44.42 40.1934 44.6616C40.4048 44.9032 40.5256 45.2957 40.5256 45.8997C40.5256 45.8997 40.5256 45.9299 40.4954 45.9601C40.4652 45.9903 40.435 45.9903 40.435 45.9903H38.7741C38.7741 45.9903 38.7439 45.9903 38.7439 46.0205V46.0507C38.7439 46.2621 38.8647 46.4433 38.8647 46.4433C38.9251 46.564 39.0459 46.6546 39.1667 46.715C39.2875 46.7754 39.4385 46.8056 39.6498 46.8056C39.8914 46.8056 40.133 46.7452 40.4048 46.6546C40.435 46.6546 40.4652 46.6546 40.4954 46.6546C40.5256 46.6848 40.5256 46.715 40.5256 46.715V47.0774C40.5256 47.0774 40.5256 47.1076 40.5256 47.1378C40.4954 47.168 40.4652 47.1982 40.435 47.1982ZM38.7741 45.5373H39.6498C39.6498 45.5373 39.68 45.5373 39.7102 45.5071C39.7404 45.5071 39.7404 45.4769 39.7404 45.4467C39.7404 45.2051 39.68 45.0542 39.6196 44.9636C39.529 44.8428 39.4083 44.7824 39.2875 44.7824C39.1365 44.7824 39.0157 44.8428 38.8949 44.9636C38.8043 45.0844 38.7439 45.2353 38.7137 45.4467C38.7137 45.4467 38.7137 45.4769 38.7439 45.5071C38.7439 45.5373 38.7741 45.5373 38.7741 45.5373Z" fill="#858585"/>
<path d="M17.9074 47.1982C17.545 47.2888 17.2128 47.3492 16.9109 47.3492C16.5787 47.3492 16.3069 47.2888 16.0653 47.168C15.8237 47.0472 15.6426 46.866 15.5218 46.6244C15.401 46.3829 15.3406 46.1111 15.3406 45.8091C15.3406 45.5373 15.401 45.2957 15.4916 45.0542C15.6124 44.8126 15.7633 44.6314 15.9747 44.5106C16.1861 44.3898 16.4277 44.2992 16.7599 44.2992C17.1222 44.2992 17.4242 44.42 17.6658 44.6616C17.8772 44.9032 17.998 45.2957 17.998 45.8997C17.998 45.8997 17.998 45.9299 17.9678 45.9601C17.9376 45.9903 17.9074 45.9903 17.9074 45.9903H16.2465C16.2465 45.9903 16.2163 45.9903 16.2163 46.0205V46.0507C16.2163 46.2621 16.3371 46.4433 16.3371 46.4433C16.3975 46.564 16.5183 46.6546 16.6391 46.715C16.7599 46.7754 16.9109 46.8056 17.1222 46.8056C17.3638 46.8056 17.6054 46.7452 17.8772 46.6546C17.9074 46.6546 17.9376 46.6546 17.9678 46.6546C17.998 46.6848 17.998 46.715 17.998 46.715V47.0774C17.998 47.0774 17.998 47.1076 17.998 47.1378C17.9376 47.168 17.9376 47.1982 17.9074 47.1982ZM16.2465 45.5373H17.1222C17.1222 45.5373 17.1524 45.5373 17.1826 45.5071C17.2128 45.5071 17.2128 45.4769 17.2128 45.4467C17.2128 45.2051 17.1524 45.0542 17.0921 44.9636C17.0015 44.8428 16.8807 44.7824 16.7599 44.7824C16.6089 44.7824 16.4881 44.8428 16.3673 44.9636C16.2767 45.0844 16.2163 45.2353 16.1861 45.4467C16.1861 45.4467 16.1861 45.4769 16.2163 45.5071C16.2163 45.5373 16.2465 45.5373 16.2465 45.5373Z" fill="#858585"/>
<path d="M45.2364 47.1982C44.874 47.2888 44.5418 47.3492 44.2398 47.3492C43.9077 47.3492 43.6359 47.2888 43.3943 47.168C43.1527 47.0472 42.9715 46.866 42.8507 46.6244C42.7299 46.3829 42.6696 46.1111 42.6696 45.8091C42.6696 45.5373 42.73 45.2957 42.8205 45.0542C42.9413 44.8126 43.0923 44.6314 43.3037 44.5106C43.5151 44.3898 43.7567 44.2992 44.0889 44.2992C44.4512 44.2992 44.7532 44.42 44.9948 44.6616C45.2062 44.9032 45.327 45.2957 45.327 45.8997C45.327 45.8997 45.327 45.9299 45.2968 45.9601C45.2666 45.9903 45.2364 45.9903 45.2364 45.9903H43.5755C43.5755 45.9903 43.5453 45.9903 43.5453 46.0205V46.0507C43.5453 46.2621 43.6661 46.4433 43.6661 46.4433C43.7265 46.564 43.8473 46.6546 43.9681 46.715C44.0889 46.7754 44.2398 46.8056 44.4512 46.8056C44.6928 46.8056 44.9344 46.7452 45.2062 46.6546C45.2364 46.6546 45.2666 46.6546 45.2968 46.6546C45.327 46.6848 45.327 46.715 45.327 46.715V47.0774C45.327 47.0774 45.327 47.1076 45.327 47.1378C45.2666 47.168 45.2364 47.1982 45.2364 47.1982ZM43.5453 45.5373H44.421C44.421 45.5373 44.4512 45.5373 44.4814 45.5071C44.5116 45.5071 44.5116 45.4769 44.5116 45.4467C44.5116 45.2051 44.4512 45.0542 44.3908 44.9636C44.3002 44.8428 44.1794 44.7824 44.0587 44.7824C43.9077 44.7824 43.7869 44.8428 43.6661 44.9636C43.5755 45.0844 43.5151 45.2353 43.4849 45.4467C43.4849 45.4467 43.4849 45.4769 43.5151 45.5071C43.5151 45.5373 43.5453 45.5373 43.5453 45.5373Z" fill="#858585"/>
<path d="M54.5675 47.3492C54.2353 47.3492 53.9636 47.2888 53.7522 47.168C53.5106 47.0472 53.3596 46.866 53.2388 46.6244C53.118 46.3829 53.0576 46.1111 53.0576 45.8393C53.0576 45.5373 53.118 45.2957 53.2388 45.0542C53.3596 44.8126 53.5408 44.6314 53.7522 44.5106C53.9938 44.3898 54.2655 44.3294 54.5675 44.3294C54.8997 44.3294 55.1715 44.3898 55.3829 44.5106C55.6244 44.6314 55.7754 44.8126 55.8962 45.0542C56.017 45.2957 56.0774 45.5675 56.0774 45.8393C56.0774 46.1413 56.017 46.3829 55.8962 46.6244C55.7754 46.866 55.5942 47.0472 55.3829 47.168C55.1413 47.2888 54.8695 47.3492 54.5675 47.3492ZM54.5675 46.866C54.7789 46.866 54.9601 46.7754 55.0809 46.564C55.2017 46.3829 55.2621 46.1111 55.2621 45.8393C55.2621 45.5373 55.2017 45.2957 55.0809 45.1145C54.9601 44.9334 54.8091 44.8126 54.5675 44.8126C54.3561 44.8126 54.1749 44.9032 54.0541 45.1145C53.9334 45.2957 53.873 45.5675 53.873 45.8393C53.873 46.1413 53.9334 46.3829 54.0541 46.564C54.1749 46.7452 54.3259 46.866 54.5675 46.866ZM54.0843 43.8462L54.5977 43.1517L54.6279 43.1215C54.6581 43.1215 54.6581 43.1215 54.6883 43.1215C54.8997 43.1215 55.0809 43.1215 55.2923 43.1215C55.2923 43.1215 55.2923 43.1215 55.3225 43.1215V43.1517C55.1111 43.3933 54.8695 43.6047 54.6581 43.8462L54.6279 43.8764C54.5977 43.8764 54.5977 43.8764 54.5675 43.8764C54.4165 43.8764 54.2655 43.8764 54.1145 43.8764C54.1145 43.8764 54.1145 43.8764 54.1145 43.8462C54.0843 43.8462 54.0843 43.8462 54.0843 43.8462Z" fill="#858585"/>
<path d="M60.2749 47.2888H59.9427V46.4433H60.7883V47.1076C60.7883 47.3492 60.7581 47.5606 60.6977 47.6814C60.6373 47.8022 60.5467 47.923 60.4259 48.0135C60.3051 48.1041 60.1239 48.1343 59.9427 48.1343V47.8324C60.0333 47.8324 60.1239 47.8022 60.1843 47.7116C60.2447 47.621 60.2749 47.5002 60.2749 47.3794V47.2888Z" fill="#858585"/>
<path d="M85.2184 47.3492C84.8862 47.3492 84.6144 47.2888 84.403 47.168C84.1615 47.0472 84.0105 46.866 83.8897 46.6244C83.7689 46.3829 83.7085 46.1111 83.7085 45.8393C83.7085 45.5373 83.7689 45.2957 83.8897 45.0542C84.0105 44.8126 84.1917 44.6314 84.403 44.5106C84.6144 44.3898 84.9164 44.3294 85.2184 44.3294C85.5506 44.3294 85.8223 44.3898 86.0337 44.5106C86.2753 44.6314 86.4263 44.8126 86.5471 45.0542C86.6679 45.2957 86.7283 45.5675 86.7283 45.8393C86.7283 46.1413 86.6679 46.3829 86.5471 46.6244C86.4263 46.866 86.2451 47.0472 86.0337 47.168C85.8223 47.2888 85.5506 47.3492 85.2184 47.3492ZM85.2184 46.866C85.4298 46.866 85.611 46.7754 85.7317 46.564C85.8525 46.3829 85.9129 46.1111 85.9129 45.8393C85.9129 45.5373 85.8525 45.2957 85.7317 45.1145C85.611 44.9334 85.46 44.8126 85.2184 44.8126C85.007 44.8126 84.8258 44.9032 84.705 45.1145C84.5842 45.2957 84.5238 45.5675 84.5238 45.8393C84.5238 46.1413 84.5842 46.3829 84.705 46.564C84.8258 46.7452 85.007 46.866 85.2184 46.866Z" fill="#858585"/>
<path d="M52.2725 43.2423H51.7893C51.6987 43.2423 51.6383 43.3027 51.6383 43.3933V43.4839V43.5141V43.6047V43.6349V43.7255C51.6383 43.816 51.6987 43.8764 51.7893 43.8764H52.2725C52.3631 43.8764 52.4235 43.816 52.4235 43.7255V43.6349V43.5745V43.4839V43.3933C52.4235 43.3027 52.3631 43.2423 52.2725 43.2423Z" fill="#858585"/>
<path d="M52.4235 44.571V44.5408C52.4235 44.4502 52.3631 44.3898 52.2725 44.3898H51.7893C51.6987 44.3898 51.6383 44.4502 51.6383 44.5408V44.6314V44.6616V44.8126V46.866V47.017V47.0472V47.1378C51.6383 47.2284 51.6987 47.2888 51.7893 47.2888H52.2725C52.3631 47.2888 52.4235 47.2284 52.4235 47.1378V47.0472V44.571Z" fill="#858585"/>
<path d="M23.6449 44.722C23.4638 44.4502 23.1618 44.3294 22.8296 44.3294C22.6182 44.3294 22.437 44.3898 22.2558 44.4804C22.1048 44.571 21.9539 44.722 21.8633 44.9334V44.8126V44.6918V44.571C21.8633 44.4804 21.8029 44.42 21.7123 44.42H21.2291C21.1385 44.42 21.0781 44.4804 21.0781 44.571V44.6918V44.722V44.873V47.9833V48.1343V48.1947V48.2853C21.0781 48.3759 21.1385 48.4363 21.2291 48.4363H21.7425C21.8331 48.4363 21.8935 48.3759 21.8935 48.2853V48.1645V48.0437V47.1378C22.0143 47.2284 22.1049 47.319 22.1652 47.3492C22.2558 47.4096 22.3162 47.4398 22.4068 47.4398C22.4974 47.47 22.588 47.47 22.7088 47.47C23.1014 47.47 23.4034 47.319 23.6147 47.017C23.8261 46.715 23.9469 46.3225 23.9469 45.8695C23.9469 45.3259 23.8563 44.9636 23.6449 44.722ZM22.9504 46.5339C22.8598 46.7452 22.6786 46.8358 22.4672 46.8358C22.3766 46.8358 22.2558 46.8056 22.1652 46.7754C22.0747 46.7452 21.9539 46.6546 21.8633 46.5339V45.3863C21.9539 45.2353 22.0747 45.1447 22.1954 45.0542C22.3162 44.9636 22.437 44.9334 22.5276 44.9334C22.7088 44.9334 22.8598 45.024 22.9504 45.1749C23.041 45.3259 23.1014 45.5373 23.1014 45.8393C23.1014 46.0809 23.041 46.3225 22.9504 46.5339Z" fill="#858585"/>
<path d="M6.64358 44.3898H6.16042C6.06982 44.3898 6.00943 44.4502 6.00943 44.5408V44.571V44.6616V44.8126V46.2319C5.85844 46.4433 5.73765 46.564 5.61686 46.6546C5.49606 46.715 5.37527 46.7754 5.28468 46.7754C5.22428 46.7754 5.16389 46.7754 5.10349 46.7452C5.0431 46.715 5.0129 46.6848 4.9827 46.6244C4.9525 46.564 4.9525 46.4735 4.9525 46.2923V44.8428V44.722V44.6918V44.6012C4.9525 44.5106 4.89211 44.4502 4.80151 44.4502H4.31835C4.22775 44.4502 4.16736 44.5106 4.16736 44.6012V44.6918V44.722V44.873V46.5037C4.16736 46.8056 4.25795 47.0472 4.40894 47.1982C4.59013 47.3492 4.77132 47.4096 5.0129 47.4096C5.19409 47.4096 5.37527 47.3492 5.55646 47.2586C5.73765 47.168 5.88864 47.017 6.03962 46.7754V46.8962V47.017V47.0472V47.168C6.03962 47.2586 6.10002 47.319 6.19061 47.319H6.64358C6.73418 47.319 6.79457 47.2586 6.79457 47.168V47.1378V47.0472V46.9264V44.873V44.7522V44.6314V44.6012C6.76437 44.4502 6.70398 44.3898 6.64358 44.3898Z" fill="#858585"/>
<path d="M14.5554 44.3898H14.0723C13.9817 44.3898 13.9213 44.4502 13.9213 44.5408V44.571V44.6616V44.8126V46.2319C13.7703 46.4433 13.6495 46.564 13.5287 46.6546C13.4079 46.715 13.2871 46.7754 13.1965 46.7754C13.1361 46.7754 13.0758 46.7754 13.0154 46.7452C12.955 46.715 12.9248 46.6848 12.8946 46.6244C12.8644 46.564 12.8644 46.4735 12.8644 46.2923V44.8428V44.722V44.6918V44.6012C12.8644 44.5106 12.804 44.4502 12.7134 44.4502H12.2302C12.1396 44.4502 12.0792 44.5106 12.0792 44.6012V44.6918V44.722V44.873V46.5037C12.0792 46.8056 12.1698 47.0472 12.3208 47.1982C12.502 47.3492 12.6832 47.4096 12.9248 47.4096C13.106 47.4096 13.2871 47.3492 13.4683 47.2586C13.6495 47.168 13.8005 47.017 13.9515 46.7754V46.8962V47.017V47.0472V47.168C13.9515 47.2586 14.0119 47.319 14.1025 47.319H14.5856C14.6762 47.319 14.7366 47.2586 14.7366 47.168V47.1378V47.0472V46.9264V44.873V44.7522V44.6314V44.6012C14.7064 44.4502 14.646 44.3898 14.5554 44.3898Z" fill="#858585"/>
<path d="M35.4523 44.3898H34.9691C34.8785 44.3898 34.8181 44.4502 34.8181 44.5408V44.571V44.6616V44.8126V46.2319C34.6672 46.4433 34.5464 46.564 34.4256 46.6546C34.3048 46.715 34.184 46.7754 34.0934 46.7754C34.033 46.7754 33.9726 46.7754 33.9122 46.7452C33.8518 46.715 33.8216 46.6848 33.7914 46.6244C33.7612 46.564 33.7612 46.4735 33.7612 46.2923V44.8428V44.722V44.6918V44.6012C33.7612 44.5106 33.7008 44.4502 33.6102 44.4502H33.1271C33.0365 44.4502 32.9761 44.5106 32.9761 44.6012V44.6918V44.722V44.873V46.5037C32.9761 46.8056 33.0667 47.0472 33.2177 47.1982C33.3988 47.3492 33.58 47.4096 33.8216 47.4096C34.0028 47.4096 34.184 47.3492 34.3652 47.2586C34.5464 47.168 34.6974 47.017 34.8483 46.7754V46.8962V47.017V47.0472V47.168C34.8483 47.2586 34.9087 47.319 34.9993 47.319H35.4825C35.5731 47.319 35.6335 47.2586 35.6335 47.168V47.1378V47.0472V46.9264V44.873V44.7522V44.6314V44.6012C35.6033 44.4502 35.5429 44.3898 35.4523 44.3898Z" fill="#858585"/>
<path d="M56.8626 47.2888H57.3457C57.4363 47.2888 57.4967 47.2284 57.4967 47.1378V47.1076V47.017V46.866V45.4467C57.6477 45.2353 57.7685 45.1146 57.8893 45.024C58.0101 44.9636 58.1309 44.9032 58.2215 44.9032C58.2819 44.9032 58.3423 44.9032 58.4027 44.9334C58.4631 44.9636 58.4933 44.9938 58.5235 45.0542C58.5537 45.1145 58.5537 45.2051 58.5537 45.3863V46.8358V46.9566V46.9868V47.0774C58.5537 47.168 58.6141 47.2284 58.7047 47.2284H59.1878C59.2784 47.2284 59.3388 47.168 59.3388 47.0774V46.9868V46.9566V46.8056V45.1749C59.3388 44.873 59.2482 44.6314 59.0972 44.4804C58.916 44.3294 58.7349 44.269 58.4933 44.269C58.3121 44.269 58.1309 44.3294 57.9497 44.42C57.7685 44.5106 57.6175 44.6616 57.4665 44.9032V44.7824V44.6918V44.6616V44.5408C57.4665 44.4502 57.4061 44.3898 57.3156 44.3898H56.8324C56.7418 44.3898 56.6814 44.4502 56.6814 44.5408V44.571V44.6616V44.7824V46.8358V46.9566V47.0774V47.1076C56.7116 47.1982 56.772 47.2888 56.8626 47.2888Z" fill="#858585"/>
<path d="M20.5949 44.5408V44.42C20.5949 44.42 20.5949 44.3898 20.5647 44.3596C20.5345 44.3294 20.5345 44.3294 20.5043 44.3294C20.4741 44.3294 20.4439 44.3294 20.4439 44.3294C20.2325 44.3294 20.0514 44.3898 19.9004 44.4804C19.7494 44.6012 19.5984 44.7522 19.5078 44.9334V44.8126V44.6918V44.571C19.5078 44.4804 19.4474 44.42 19.3568 44.42C19.2058 44.42 19.0246 44.42 18.8736 44.42C18.8736 44.42 18.8736 44.42 18.8434 44.42C18.7831 44.42 18.7227 44.4804 18.7227 44.5408C18.7227 44.5408 18.7227 44.5408 18.7227 44.571V44.6012C18.7227 44.6314 18.7227 44.6918 18.7227 44.722C18.7227 44.7824 18.7227 44.8126 18.7227 44.873C18.7227 45.5675 18.7227 46.2621 18.7227 46.9264C18.7227 46.9868 18.7227 47.017 18.7227 47.0774C18.7227 47.1076 18.7227 47.168 18.7227 47.1982C18.7227 47.2888 18.7831 47.3492 18.8736 47.3492H19.3568C19.3568 47.3492 19.3568 47.3492 19.387 47.3492C19.387 47.3492 19.387 47.3492 19.4172 47.3492C19.4172 47.3492 19.4172 47.3492 19.4474 47.3492C19.4474 47.3492 19.4474 47.3492 19.4474 47.319C19.4474 47.319 19.4474 47.319 19.4474 47.2888V47.2586V47.1378V47.017C19.4474 46.5338 19.4474 46.0809 19.4474 45.5977C19.538 45.4467 19.6588 45.3259 19.7796 45.2353C19.9004 45.1447 20.0514 45.1145 20.2024 45.1145C20.2627 45.1145 20.3231 45.1145 20.3835 45.1447C20.4741 45.1749 20.5043 45.1145 20.5043 45.0542L20.5949 44.5408Z" fill="#858585"/>
<path d="M83.4669 44.5408V44.42C83.4669 44.42 83.4669 44.3898 83.4367 44.3596C83.4065 44.3294 83.4065 44.3294 83.3763 44.3294C83.3461 44.3294 83.3159 44.3294 83.3159 44.3294C83.1045 44.3294 82.9233 44.3898 82.7723 44.4804C82.6213 44.6012 82.4703 44.7522 82.3797 44.9334V44.8126V44.6918V44.571C82.3797 44.4804 82.3193 44.42 82.2288 44.42C82.0778 44.42 81.8966 44.42 81.7456 44.42C81.7456 44.42 81.7456 44.42 81.7154 44.42C81.655 44.42 81.5946 44.4804 81.5946 44.5408C81.5946 44.5408 81.5946 44.5408 81.5946 44.571V44.6012C81.5946 44.6314 81.5946 44.6918 81.5946 44.722C81.5946 44.7824 81.5946 44.8126 81.5946 44.873C81.5946 45.5675 81.5946 46.2621 81.5946 46.9264C81.5946 46.9868 81.5946 47.017 81.5946 47.0774C81.5946 47.1076 81.5946 47.168 81.5946 47.1982C81.5946 47.2888 81.655 47.3492 81.7456 47.3492H82.2288C82.2288 47.3492 82.2288 47.3492 82.259 47.3492C82.259 47.3492 82.259 47.3492 82.2892 47.3492C82.2892 47.3492 82.2892 47.3492 82.3194 47.3492C82.3194 47.3492 82.3194 47.3492 82.3194 47.319C82.3194 47.319 82.3194 47.319 82.3194 47.2888V47.2586V47.1378V47.017C82.3194 46.5338 82.3194 46.0809 82.3194 45.5977C82.4099 45.4467 82.5307 45.3259 82.6515 45.2353C82.7723 45.1447 82.9233 45.1145 83.0743 45.1145C83.1347 45.1145 83.1951 45.1145 83.2555 45.1447C83.3461 45.1749 83.3763 45.1145 83.3763 45.0542L83.4669 44.5408Z" fill="#858585"/>
<path d="M11.294 44.3898C11.2638 44.3898 11.2638 44.3898 11.2336 44.3898C11.2638 44.3898 11.3242 44.42 11.3544 44.42C11.3242 44.42 11.294 44.3898 11.294 44.3898Z" fill="#858585"/>
<path d="M11.1128 44.3596C11.143 44.3596 11.1732 44.3596 11.2034 44.3898C11.1732 44.3898 11.143 44.3596 11.1128 44.3596Z" fill="#858585"/>
<path d="M10.9316 44.3294C10.9618 44.3294 10.992 44.3294 11.0222 44.3294C10.992 44.3596 10.9618 44.3294 10.9316 44.3294Z" fill="#858585"/>
<path d="M48.0146 46.6848C47.9844 46.6848 47.9844 46.6848 47.9844 46.6848C47.8938 46.715 47.773 46.7452 47.7126 46.7754C47.6522 46.7754 47.5918 46.8056 47.5616 46.8056C47.5314 46.8056 47.5012 46.8056 47.471 46.8056C47.32 46.8056 47.169 46.7754 47.0482 46.6848C46.9275 46.5942 46.8067 46.5037 46.7463 46.3225C46.6859 46.1715 46.6255 45.9903 46.6255 45.7789C46.6255 45.5373 46.6859 45.2957 46.8067 45.1146C46.9275 44.9032 47.1388 44.8126 47.4106 44.8126C47.5616 44.8126 47.773 44.8428 48.0146 44.9334C48.0146 44.9334 48.0146 44.9334 48.0448 44.9334C48.1354 44.9636 48.1958 44.9032 48.1958 44.8428V44.4804C48.1958 44.4502 48.1656 44.3898 48.1354 44.3898C48.1354 44.3898 48.1354 44.3898 48.1052 44.3898H48.075H48.0448C48.0448 44.3898 48.0448 44.3898 48.0146 44.3898C47.9844 44.3898 47.9542 44.3898 47.924 44.3596C47.8938 44.3596 47.8636 44.3596 47.8334 44.3294C47.8032 44.3294 47.773 44.3294 47.7428 44.3294C47.622 44.3294 47.5012 44.2992 47.4106 44.2992C47.32 44.2992 47.2898 44.2992 47.1992 44.2992C47.169 44.2992 47.1388 44.2992 47.1388 44.2992C46.7463 44.3294 46.4443 44.4804 46.2329 44.6918C45.9611 44.9636 45.8403 45.3259 45.8403 45.7789C45.8403 46.2017 45.9611 46.564 46.2027 46.866C46.4443 47.168 46.8369 47.319 47.32 47.319C47.5314 47.319 47.7428 47.2888 47.9844 47.2586C48.0146 47.2586 48.0146 47.2586 48.0448 47.2586C48.075 47.2586 48.1354 47.2284 48.1656 47.2284C48.1958 47.2284 48.226 47.168 48.226 47.1378V46.7754C48.1656 46.715 48.1052 46.6546 48.0146 46.6848Z" fill="#858585"/>
<path d="M50.823 46.6848C50.7929 46.6848 50.7928 46.6848 50.7928 46.6848C50.7023 46.715 50.5815 46.7452 50.5211 46.7754C50.4607 46.7754 50.4003 46.8056 50.3701 46.8056C50.3399 46.8056 50.3097 46.8056 50.2795 46.8056C50.1285 46.8056 49.9775 46.7754 49.8567 46.6848C49.7359 46.5942 49.6151 46.5037 49.5547 46.3225C49.4943 46.1715 49.4339 45.9903 49.4339 45.7789C49.4339 45.5373 49.4943 45.2957 49.6151 45.1146C49.7359 44.9032 49.9473 44.8126 50.2191 44.8126C50.3701 44.8126 50.5815 44.8428 50.823 44.9334C50.823 44.9334 50.823 44.9334 50.8532 44.9334C50.9438 44.9636 51.0042 44.9032 51.0042 44.8428V44.4804C51.0042 44.4502 50.974 44.3898 50.9438 44.3898C50.9438 44.3898 50.9438 44.3898 50.9136 44.3898H50.8834H50.8532C50.8532 44.3898 50.8532 44.3898 50.823 44.3898C50.7929 44.3898 50.7627 44.3898 50.7325 44.3596C50.7023 44.3596 50.6721 44.3596 50.6419 44.3294C50.6117 44.3294 50.5815 44.3294 50.5513 44.3294C50.4305 44.3294 50.3097 44.2992 50.2191 44.2992C50.1285 44.2992 50.0983 44.2992 50.0077 44.2992C49.9775 44.2992 49.9473 44.2992 49.9473 44.2992C49.5547 44.3294 49.2528 44.4804 49.0414 44.6918C48.7696 44.9636 48.6488 45.3259 48.6488 45.7789C48.6488 46.2017 48.7696 46.564 49.0112 46.866C49.2528 47.168 49.6453 47.319 50.1285 47.319C50.3399 47.319 50.5513 47.2888 50.7928 47.2586C50.823 47.2586 50.823 47.2586 50.8532 47.2586C50.8834 47.2586 50.9438 47.2284 50.974 47.2284C51.0042 47.2284 51.0344 47.168 51.0344 47.1378V46.7754C50.974 46.715 50.9136 46.6546 50.823 46.6848Z" fill="#858585"/>
<path d="M32.3722 46.8358C32.342 46.8358 32.342 46.8056 32.3118 46.8056H32.2816C32.2212 46.8056 32.191 46.8056 32.1306 46.8056C31.9796 46.8056 31.889 46.7754 31.7984 46.6848C31.738 46.6244 31.6776 46.4735 31.6776 46.2621V44.8428H32.2212C32.2212 44.8428 32.2514 44.8428 32.2816 44.8126C32.2816 44.7824 32.3118 44.7824 32.3118 44.7824C32.3118 44.6616 32.3118 44.5408 32.3118 44.42C32.3118 44.42 32.3118 44.3898 32.2816 44.3596C32.2514 44.3294 32.2514 44.3294 32.2514 44.3294C32.191 44.3294 31.6776 44.3294 31.6776 44.3294V43.816V43.7858C31.6776 43.7556 31.6474 43.7556 31.6474 43.7556H31.6172C31.4058 43.7858 31.1643 43.816 30.9529 43.816C30.9529 43.816 30.9227 43.816 30.9227 43.8462C30.8925 43.8764 30.8925 43.9066 30.8925 43.9066C30.8925 44.0576 30.8925 44.1784 30.8925 44.3294H30.8019H30.6811C30.6509 44.3294 30.6509 44.3294 30.6207 44.3294C30.6207 44.3294 30.5905 44.3294 30.5905 44.3596C30.5603 44.3898 30.5603 44.3898 30.5603 44.42C30.5603 44.5408 30.5603 44.6616 30.5603 44.7824C30.5603 44.7824 30.5603 44.8126 30.5905 44.8126C30.6207 44.8428 30.6509 44.8428 30.6509 44.8428H30.6811H30.8925V46.3527C30.8925 46.5942 30.9227 46.7754 31.0133 46.8962C31.0737 47.017 31.1945 47.1076 31.3454 47.1982C31.4964 47.2586 31.6776 47.319 31.9494 47.319C32.04 47.319 32.1608 47.2888 32.2816 47.2586C32.3118 47.2586 32.3118 47.2586 32.342 47.2586C32.3722 47.2586 32.4024 47.2284 32.4024 47.168V47.1076V46.866C32.4024 46.866 32.4024 46.8358 32.3722 46.8358Z" fill="#858585"/>
<path d="M67.6432 44.3898H67.16C67.0695 44.3898 67.0091 44.4502 67.0091 44.5408V44.571V44.6616V44.8126V46.2319C66.8581 46.4433 66.7373 46.564 66.6165 46.6546C66.4957 46.715 66.3749 46.7754 66.2843 46.7754C66.2239 46.7754 66.1635 46.7754 66.1031 46.7452C66.0427 46.715 66.0125 46.6848 65.9823 46.6244C65.9521 46.564 65.9521 46.4735 65.9521 46.2923V44.8428V44.722V44.6918V44.6012C65.9521 44.5106 65.8917 44.4502 65.8011 44.4502H65.318C65.2274 44.4502 65.167 44.5106 65.167 44.6012V44.6918V44.722V44.873V46.5037C65.167 46.8056 65.2576 47.0472 65.4086 47.1982C65.5898 47.3492 65.771 47.4096 66.0125 47.4096C66.1937 47.4096 66.3749 47.3492 66.5561 47.2586C66.7373 47.168 66.8883 47.017 67.0393 46.7754V46.8962V47.017V47.0472V47.168C67.0393 47.2586 67.0997 47.319 67.1902 47.319H67.6734C67.764 47.319 67.8244 47.2586 67.8244 47.168V47.1378V47.0472V46.9264V44.873V44.7522V44.6314V44.6012C67.7942 44.4502 67.7338 44.3898 67.6432 44.3898Z" fill="#858585"/>
<path d="M74.9511 44.3898H74.4679C74.3773 44.3898 74.3169 44.4502 74.3169 44.5408V44.571V44.6616V44.8126V46.2319C74.1659 46.4433 74.0451 46.564 73.9244 46.6546C73.8036 46.715 73.6828 46.7754 73.5922 46.7754C73.5318 46.7754 73.4714 46.7754 73.411 46.7452C73.3506 46.715 73.3204 46.6848 73.2902 46.6244C73.26 46.564 73.26 46.4735 73.26 46.2923V44.8428V44.722V44.6918V44.6012C73.26 44.5106 73.1996 44.4502 73.109 44.4502H72.6258C72.5352 44.4502 72.4749 44.5106 72.4749 44.6012V44.6918V44.722V44.873V46.5037C72.4749 46.8056 72.5654 47.0472 72.7164 47.1982C72.8976 47.3492 73.0788 47.4096 73.3204 47.4096C73.5016 47.4096 73.6828 47.3492 73.864 47.2586C74.0451 47.168 74.1961 47.017 74.3471 46.7754V46.8962V47.017V47.0472V47.168C74.3471 47.2586 74.4075 47.319 74.4981 47.319H74.9813C75.0719 47.319 75.1323 47.2586 75.1323 47.168V47.1378V47.0472V46.9264V44.873V44.7522V44.6314V44.6012C75.1021 44.4502 75.0417 44.3898 74.9511 44.3898Z" fill="#858585"/>
<path d="M80.5378 44.3898H80.0546C79.964 44.3898 79.9036 44.4502 79.9036 44.5408V44.571V44.6616V44.8126V46.2319C79.7526 46.4433 79.6318 46.564 79.511 46.6546C79.3902 46.715 79.2694 46.7754 79.1788 46.7754C79.1185 46.7754 79.0581 46.7754 78.9977 46.7452C78.9373 46.715 78.9071 46.6848 78.8769 46.6244C78.8467 46.564 78.8467 46.4735 78.8467 46.2923V44.8428V44.722V44.6918V44.6012C78.8467 44.5106 78.7863 44.4502 78.6957 44.4502H78.2125C78.1219 44.4502 78.0615 44.5106 78.0615 44.6012V44.6918V44.722V44.873V46.5037C78.0615 46.8056 78.1521 47.0472 78.3031 47.1982C78.4843 47.3492 78.6655 47.4096 78.9071 47.4096C79.0882 47.4096 79.2694 47.3492 79.4506 47.2586C79.6318 47.168 79.7828 47.017 79.9338 46.7754V46.8962V47.017V47.0472V47.168C79.9338 47.2586 79.9942 47.319 80.0848 47.319H80.5679C80.6585 47.319 80.7189 47.2586 80.7189 47.168V47.1378V47.0472V46.9264V44.873V44.7522V44.6314V44.6012C80.6887 44.4502 80.6283 44.3898 80.5378 44.3898Z" fill="#858585"/>
<path d="M64.563 46.8358C64.5328 46.8358 64.5328 46.8056 64.5026 46.8056H64.4724C64.412 46.8056 64.3818 46.8056 64.3214 46.8056C64.1704 46.8056 64.0798 46.7754 63.9892 46.6848C63.8986 46.5942 63.8684 46.4735 63.8684 46.2621V44.8428H64.261H64.412C64.412 44.8428 64.4422 44.8428 64.4724 44.8126C64.4724 44.7824 64.5026 44.7824 64.5026 44.7824C64.5026 44.6616 64.5026 44.5408 64.5026 44.42C64.5026 44.42 64.5026 44.3898 64.4724 44.3596C64.4422 44.3294 64.4422 44.3294 64.4422 44.3294C64.3818 44.3294 64.3214 44.3294 64.261 44.3294H63.8684V43.816V43.7858C63.8684 43.7556 63.8382 43.7556 63.8382 43.7556H63.808C63.5966 43.7858 63.3551 43.816 63.1437 43.816C63.1437 43.816 63.1135 43.816 63.1135 43.8462C63.0833 43.8764 63.0833 43.9066 63.0833 43.9066C63.0833 44.0576 63.0833 44.1784 63.0833 44.3294H62.9927H62.8719C62.8417 44.3294 62.8417 44.3294 62.8115 44.3294C62.8115 44.3294 62.7813 44.3294 62.7813 44.3596C62.7511 44.3898 62.7511 44.3898 62.7511 44.42C62.7511 44.5408 62.7511 44.6616 62.7511 44.7824C62.7511 44.7824 62.7511 44.8126 62.7813 44.8126C62.8115 44.8428 62.8417 44.8428 62.8417 44.8428H62.8719H63.0833V46.3527C63.0833 46.5942 63.1135 46.7754 63.2041 46.8962C63.2645 47.017 63.3853 47.1076 63.5362 47.1982C63.6872 47.2586 63.8684 47.319 64.1402 47.319C64.2308 47.319 64.3516 47.2888 64.4724 47.2586C64.5026 47.2586 64.5026 47.2586 64.5328 47.2586C64.563 47.2586 64.5932 47.2284 64.5932 47.168V47.1076V46.866C64.5932 46.866 64.5932 46.8358 64.563 46.8358Z" fill="#858585"/>
<path d="M77.4575 46.8358C77.4273 46.8358 77.4273 46.8056 77.3971 46.8056H77.3669C77.3065 46.8056 77.2763 46.8056 77.2159 46.8056C77.0649 46.8056 76.9743 46.7754 76.8837 46.6848C76.7931 46.5942 76.7629 46.4735 76.7629 46.2621V44.8428H77.1555H77.3065C77.3065 44.8428 77.3367 44.8428 77.3669 44.8126C77.3669 44.7824 77.3971 44.7824 77.3971 44.7824C77.3971 44.6616 77.3971 44.5408 77.3971 44.42C77.3971 44.42 77.3971 44.3898 77.3669 44.3596C77.3367 44.3294 77.3367 44.3294 77.3367 44.3294C77.2763 44.3294 77.2159 44.3294 77.1555 44.3294H76.7629V43.816V43.7858C76.7629 43.7556 76.7327 43.7556 76.7327 43.7556H76.7025C76.4911 43.7858 76.2495 43.816 76.0382 43.816C76.0382 43.816 76.008 43.816 76.008 43.8462C75.9778 43.8764 75.9778 43.9066 75.9778 43.9066C75.9778 44.0576 75.9778 44.1784 75.9778 44.3294H75.8872H75.7966C75.7664 44.3294 75.7664 44.3294 75.7362 44.3294C75.7362 44.3294 75.706 44.3294 75.706 44.3596C75.6758 44.3898 75.6758 44.3898 75.6758 44.42C75.6758 44.5408 75.6758 44.6616 75.6758 44.7824C75.6758 44.7824 75.6758 44.8126 75.706 44.8126C75.7362 44.8428 75.7664 44.8428 75.7664 44.8428H75.7966H76.008V46.3527C76.008 46.5942 76.0382 46.7754 76.1287 46.8962C76.1891 47.017 76.3099 47.1076 76.4609 47.1982C76.6119 47.2586 76.7931 47.319 77.0649 47.319C77.1555 47.319 77.2763 47.2888 77.3971 47.2586C77.4273 47.2586 77.4273 47.2586 77.4575 47.2586C77.4877 47.2586 77.5179 47.2284 77.5179 47.168V47.1076V46.866C77.4877 46.866 77.4877 46.8358 77.4575 46.8358Z" fill="#858585"/>
<path d="M72.203 43.1517C72.1728 43.1215 72.1728 43.1215 72.1426 43.1215C71.9312 43.0611 71.6897 43.0309 71.4783 43.0309C71.1461 43.0309 70.8743 43.1215 70.6629 43.3027C70.4817 43.4839 70.3912 43.7556 70.3912 44.1784V44.3898C70.3308 44.3898 70.2704 44.3898 70.21 44.3898C70.1496 44.3898 70.0892 44.3898 70.0288 44.3898C70.0288 44.3898 69.9986 44.3898 69.9986 44.42C69.9684 44.4502 69.9684 44.4502 69.9684 44.4804C69.9684 44.6012 69.9684 44.722 69.9684 44.8428C69.9684 44.8428 69.9684 44.873 69.9986 44.873C70.0288 44.9032 70.059 44.9032 70.059 44.9032H70.21H70.3912V47.0774V47.168C70.3912 47.2586 70.4516 47.319 70.5421 47.319H71.0253C71.1159 47.319 71.1763 47.2586 71.1763 47.168V47.0472V46.9264V44.9334H71.2367H71.6897H71.8406C71.8406 44.9334 71.8709 44.9334 71.901 44.9032C71.901 44.873 71.9312 44.873 71.9312 44.873C71.9312 44.7522 71.9312 44.6314 71.9312 44.5106C71.9312 44.5106 71.9312 44.4804 71.901 44.4502C71.8709 44.42 71.8708 44.42 71.8708 44.42C71.8105 44.42 71.7501 44.42 71.6897 44.42C71.5085 44.42 71.3575 44.42 71.1763 44.42V44.1784C71.1763 43.9972 71.2065 43.8462 71.2367 43.7858C71.2669 43.7254 71.3273 43.6651 71.3877 43.6349C71.4481 43.6047 71.5085 43.5745 71.5991 43.5745C71.7501 43.5745 71.901 43.6047 72.0822 43.6651C72.1124 43.6651 72.1426 43.6651 72.1728 43.6651C72.203 43.6349 72.203 43.6047 72.203 43.6047V43.2423C72.203 43.2121 72.203 43.1819 72.203 43.1517Z" fill="#858585"/>
<path d="M41.2502 47.017V47.1076C41.2502 47.1982 41.3106 47.2586 41.4012 47.2586H41.8844C41.975 47.2586 42.0354 47.1982 42.0354 47.1076V46.9868V46.866V43.5443V43.4235V43.3027C42.0354 43.2121 41.975 43.1517 41.8844 43.1517H41.4012C41.3106 43.1517 41.2502 43.2121 41.2502 43.3027V43.3933V43.4235V43.5745V46.8962V47.0472V47.017Z" fill="#858585"/>
</svg>
