<svg width="150" height="84" viewBox="0 0 150 84" fill="none" xmlns="http://www.w3.org/2000/svg">
<path d="M83.0441 62.6685L92.0513 38.3921V65.0127C92.0513 65.8984 92.7803 66.6798 93.6654 66.6798H99.4967C100.382 66.6798 101.111 65.9505 101.111 65.0127V21.0445C101.111 20.1589 100.382 19.3774 99.4967 19.3774H91.791C91.1142 19.3774 90.4894 19.7942 90.2291 20.4714L79.1912 50.2698L68.5179 20.4714C68.2575 19.7942 67.6848 19.3774 66.9559 19.3774H58.3131C57.4279 19.3774 56.647 20.1068 56.647 21.0445V65.0127C56.647 65.8984 57.3759 66.6798 58.3131 66.6798H63.6758C64.5609 66.6798 65.3419 65.9505 65.3419 65.0127V38.6005L73.9326 62.6164C74.1409 63.2936 74.7657 63.7104 75.4946 63.7104H81.4821C82.211 63.7625 82.8358 63.3457 83.0441 62.6685Z" fill="white"/>
<path d="M142.086 66.6798H148.334C149.219 66.6798 150 65.9505 150 65.0127V21.0445C150 20.1589 149.271 19.3774 148.334 19.3774H142.086C141.201 19.3774 140.472 20.1068 140.472 21.0445V65.0127C140.42 65.9505 141.149 66.6798 142.086 66.6798Z" fill="white"/>
<path d="M133.651 45.7375C132.923 44.5914 129.695 41.3095 122.718 37.6628C118.657 35.5269 115.377 33.5994 115.22 30.7342C115.116 29.9527 115.585 26.1498 121.156 26.2019C124.54 26.2019 127.247 27.4522 130.944 28.8587C132.298 29.2234 133.339 28.2336 133.339 27.2438V21.4612C133.339 20.6798 132.818 20.0026 132.09 19.7942C129.851 19.1169 125.425 18.0229 120.948 18.0229C111.888 18.0229 108.816 23.2325 107.827 24.5869C106.005 27.4522 104.287 33.2868 108.244 38.9652C112.877 44.8519 122.51 47.7692 125.269 51.3638C125.998 52.3015 127.247 55.844 124.488 58.2925C122.874 59.9074 119.698 60.3242 115.429 59.3865C113.867 59.0218 111.263 58.032 107.983 56.5212C107.098 56.1045 105.536 56.7296 105.536 58.0841V64.3355C105.536 65.0648 106.109 65.7941 106.838 66.0025C117.72 69.2845 126.31 68.6594 131.673 63.7103C136.775 58.9176 137.452 51.4159 133.651 45.7375Z" fill="white"/>
<path d="M44.8802 22.3469C44.8802 22.5553 44.7241 22.7637 44.4637 22.7637H0.416522C0.208261 22.7637 0 22.5553 0 22.3469V19.638C0 19.4296 0.156196 19.2212 0.416522 19.2212H44.5158C44.7241 19.2212 44.9323 19.3775 44.9323 19.638V22.3469H44.8802Z" fill="white"/>
<path d="M9.21555 29.6922C9.21555 29.9006 9.00729 30.1089 8.79903 30.1089H0.416522C0.156196 30.1089 0 29.9006 0 29.6922V24.4827C0 24.2743 0.156196 24.0659 0.416522 24.0659H8.79903C9.00729 24.0659 9.21555 24.2743 9.21555 24.4827V29.6922Z" fill="white"/>
<path d="M9.21555 66.2631C9.21555 66.4715 9.00729 66.6799 8.79903 66.6799H0.416522C0.208261 66.6799 0 66.4715 0 66.2631V61.1057C0 60.8973 0.156196 60.689 0.416522 60.689H8.79903C9.00729 60.689 9.21555 60.8453 9.21555 61.1057V66.2631Z" fill="white"/>
<path d="M35.7167 29.6922C35.7167 29.9006 35.925 30.1089 36.1333 30.1089H44.5158C44.724 30.1089 44.9323 29.9006 44.9323 29.6922V24.4827C44.9323 24.2743 44.7761 24.0659 44.5158 24.0659H36.0812C35.8729 24.0659 35.6647 24.2743 35.6647 24.4827V29.6922H35.7167Z" fill="white"/>
<path d="M35.7167 66.2631C35.7167 66.4715 35.925 66.6799 36.1333 66.6799H44.5158C44.724 66.6799 44.9323 66.4715 44.9323 66.2631V61.1057C44.9323 60.8973 44.7761 60.689 44.5158 60.689H36.0812C35.8729 60.689 35.6647 60.8453 35.6647 61.1057V66.2631H35.7167Z" fill="white"/>
<path d="M41.3398 31.8284C41.3398 31.62 41.1315 31.4116 40.9233 31.4116H36.0812C35.8729 31.4116 35.6647 31.62 35.6647 31.8284V58.9178C35.6647 59.1262 35.8729 59.3346 36.0812 59.3346H40.9233C41.1315 59.3346 41.3398 59.1262 41.3398 58.9178V31.8284Z" fill="white"/>
<path d="M9.21552 31.8284C9.21552 31.62 9.00726 31.4116 8.799 31.4116H3.95693C3.74867 31.4116 3.54041 31.62 3.54041 31.8284V58.9178C3.54041 59.1262 3.74867 59.3346 3.95693 59.3346H8.74693C8.95519 59.3346 9.16345 59.1262 9.16345 58.9178V31.8284H9.21552Z" fill="white"/>
<path d="M29.3648 27.9208L12.6518 24.1178C12.2353 24.0137 11.8708 24.3262 11.8708 24.743V66.0544C11.8708 66.5233 12.2353 66.7837 12.6518 66.6795L29.3648 62.2515C29.7813 62.1473 30.1458 61.6784 30.1458 61.2096V28.9627C30.1978 28.4938 29.8334 28.025 29.3648 27.9208ZM15.6716 48.1858C15.6716 49.8528 15.6716 61.8347 15.6716 62.3036C15.6716 62.9808 14.3179 64.0227 14.3179 64.0227V48.2379V47.0918L15.6716 47.0397C17.0253 46.9876 18.8476 46.9355 19.3682 46.8834C20.1492 46.8313 20.9302 47.8732 20.9302 47.8732L15.6716 48.1858ZM15.6716 38.0272C15.6716 39.6943 15.6716 43.3409 15.6716 43.8098C15.6716 44.487 14.3179 45.2685 14.3179 45.2685V37.9751V36.8291L15.6716 36.9332C17.0253 37.0374 18.8476 37.1937 19.3682 37.2458C20.1492 37.2979 20.9302 38.444 20.9302 38.444L15.6716 38.0272ZM15.6716 27.9208C15.6716 29.5878 15.6716 33.2345 15.6716 33.7033C15.6716 34.3806 14.3179 34.9536 14.3179 34.9536V27.6603V26.5142L15.6716 26.7747C17.0253 27.0352 18.8476 27.3998 19.3682 27.504C20.1492 27.6603 20.9302 28.8585 20.9302 28.8585L15.6716 27.9208ZM24.6268 47.7169C24.6268 49.2277 24.6268 59.9593 24.6268 60.376C24.6268 61.0012 23.5335 61.8868 23.5335 61.8868V47.769V46.7271L24.6268 46.675C25.7202 46.6229 27.2301 46.5708 27.5946 46.5708C28.2193 46.5708 28.8441 47.4564 28.8441 47.4564L24.6268 47.7169ZM24.6268 38.6524C24.6268 40.1631 24.6268 43.4451 24.6268 43.914C24.6268 44.5391 23.5335 45.2164 23.5335 45.2164V38.6003V37.5584L24.6268 37.6626C25.7202 37.7668 27.2301 37.871 27.5946 37.9231C28.2193 37.9751 28.8441 38.965 28.8441 38.965L24.6268 38.6524ZM24.6268 29.5878C24.6268 31.0465 24.6268 34.3806 24.6268 34.8494C24.6268 35.4746 23.5335 35.9955 23.5335 35.9955V29.3795V28.3376L24.6268 28.5459C25.7202 28.7543 27.2301 29.0669 27.5946 29.119C28.2193 29.2232 28.8441 30.3172 28.8441 30.3172L24.6268 29.5878Z" fill="white"/>
<path d="M16.4526 17.8667H28.6359C28.7921 17.8667 28.9483 17.7104 28.9483 17.502C28.74 14.1679 25.9285 11.459 22.4922 11.459C19.0559 11.459 16.2443 14.1679 16.0881 17.5541C16.1402 17.7104 16.2443 17.8667 16.4526 17.8667Z" fill="white"/>
<path d="M21.555 1.30048C21.5029 1.24838 21.3988 1.19629 21.2426 1.19629C18.9517 1.30048 16.7649 1.92562 14.7865 2.96752C14.6823 3.01962 14.6303 3.12381 14.5782 3.228C14.5261 3.33219 14.5782 3.43638 14.6303 3.54057L18.6914 10.2608C18.7434 10.365 18.8996 10.4692 19.0038 10.4692C19.0558 10.4692 19.1079 10.4692 19.1599 10.4171C19.8368 10.1046 20.5657 9.89617 21.2946 9.79198C21.5029 9.79198 21.6591 9.5836 21.6591 9.42731V1.61305C21.7111 1.50886 21.6591 1.40467 21.555 1.30048Z" fill="white"/>
<path d="M14.7345 14.4283L7.80978 10.7295C7.70565 10.6774 7.60152 10.6774 7.49739 10.7295C7.39326 10.7816 7.34119 10.8337 7.28913 10.9379C6.29989 13.0217 5.8313 15.2097 5.8313 17.5019C5.8313 17.6061 5.88336 17.7102 5.93543 17.7623C5.98749 17.8144 6.09163 17.8665 6.19576 17.8665H14.0576C14.2659 17.8665 14.4221 17.7102 14.4221 17.5019C14.4221 16.6162 14.5783 15.7827 14.9427 14.9492C14.9948 14.7408 14.9427 14.5324 14.7345 14.4283Z" fill="white"/>
<path d="M17.4939 10.9381L13.4328 4.21781C13.3807 4.11362 13.2766 4.06152 13.1725 4.06152C13.0683 4.06152 12.9642 4.06152 12.8601 4.11362C10.9857 5.3639 9.3717 7.03094 8.22626 9.01056C8.17419 9.11475 8.17419 9.21894 8.17419 9.32313C8.22626 9.42732 8.27833 9.53151 8.38246 9.5836L15.3592 13.2824C15.4113 13.3344 15.4633 13.3344 15.5154 13.3344C15.6195 13.3344 15.7757 13.2824 15.8278 13.1782C16.2443 12.553 16.765 12.0321 17.3897 11.5632C17.5459 11.3548 17.598 11.0944 17.4939 10.9381Z" fill="white"/>
<path d="M36.6539 9.01031C35.5085 7.0828 33.8945 5.41575 32.0722 4.16547C31.9681 4.11338 31.8639 4.06128 31.7598 4.11338C31.6557 4.11338 31.5515 4.21757 31.4995 4.32176L27.4905 10.9378C27.3863 11.0941 27.4384 11.3025 27.5946 11.4588C28.2194 11.9276 28.74 12.4486 29.1565 13.0737C29.2086 13.1779 29.3648 13.23 29.4689 13.23C29.521 13.23 29.5731 13.23 29.6251 13.1779L36.4977 9.53126C36.6019 9.47917 36.6539 9.37498 36.706 9.27079C36.7581 9.21869 36.706 9.1145 36.6539 9.01031Z" fill="white"/>
<path d="M30.4061 3.28009C30.354 3.1759 30.3019 3.07171 30.1978 3.01962C28.2193 1.92562 26.0326 1.35257 23.7417 1.19629C23.6376 1.19629 23.5335 1.24838 23.4293 1.30048C23.3773 1.35257 23.3252 1.45676 23.3252 1.56095V9.37522C23.3252 9.5836 23.4814 9.73988 23.6897 9.73988C24.4186 9.84407 25.1475 10.0004 25.8243 10.365C25.8764 10.365 25.9285 10.4171 25.9805 10.4171C26.1367 10.4171 26.2408 10.365 26.2929 10.2087L30.3019 3.54057C30.4061 3.48847 30.4061 3.38428 30.4061 3.28009Z" fill="white"/>
<path d="M37.6431 10.9903C37.5911 10.8861 37.539 10.834 37.4349 10.7819C37.3307 10.7298 37.2266 10.7819 37.1225 10.7819L30.2499 14.4286C30.0937 14.5328 29.9895 14.7412 30.0937 14.8975C30.4061 15.731 30.6143 16.5645 30.6143 17.4501C30.6143 17.6585 30.7705 17.8148 30.9788 17.8148H38.6844C38.7886 17.8148 38.8927 17.7627 38.9448 17.7106C38.9968 17.6585 39.0489 17.5543 39.0489 17.4501C39.101 15.21 38.6324 13.022 37.6431 10.9903Z" fill="white"/>
<path d="M47.7959 3.95752H56.1263C56.3867 3.95752 56.5949 4.1659 56.5949 4.42638V5.88504C56.5949 6.14551 56.3867 6.35389 56.1263 6.35389H50.5033C50.243 6.35389 50.0347 6.56227 50.0347 6.82275V8.48979C50.0347 8.75027 50.243 8.95865 50.5033 8.95865H55.3454C55.6057 8.95865 55.8139 9.16703 55.8139 9.4275V10.9383C55.8139 11.1987 55.6057 11.4071 55.3454 11.4071H50.5033C50.243 11.4071 50.0347 11.6155 50.0347 11.876V15.6268C50.0347 15.8873 49.8264 16.0957 49.5661 16.0957H47.848C47.5876 16.0957 47.3794 15.8873 47.3794 15.6268V4.42638C47.3273 4.1659 47.5356 3.95752 47.7959 3.95752Z" fill="white"/>
<path d="M62.8948 16.4082C61.2287 16.4082 59.9791 15.9394 58.9899 15.0538C58.0527 14.1682 57.5841 12.7616 57.5841 10.9904V4.42638C57.5841 4.1659 57.7924 3.95752 58.0527 3.95752H59.7708C60.0312 3.95752 60.2394 4.1659 60.2394 4.42638V10.8862C60.2394 11.876 60.4477 12.6574 60.9163 13.1784C61.3849 13.6993 62.0097 13.9598 62.8427 13.9598C63.6757 13.9598 64.3005 13.6993 64.7691 13.2304C65.2377 12.7616 65.446 11.9802 65.446 11.0425V4.42638C65.446 4.1659 65.6542 3.95752 65.9145 3.95752H67.6327C67.893 3.95752 68.1013 4.1659 68.1013 4.42638V10.8341C68.1013 11.7718 67.9972 12.6053 67.7368 13.2825C67.4765 13.9598 67.112 14.5328 66.6435 15.0017C66.1749 15.4705 65.6022 15.7831 64.9253 16.0436C64.4567 16.252 63.7278 16.4082 62.8948 16.4082Z" fill="white"/>
<path d="M70.4963 3.95752H72.2665C72.4227 3.95752 72.5789 4.00961 72.683 4.1659L77.3689 10.3652C77.6292 10.7299 78.254 10.5215 78.254 10.0526V4.42638C78.254 4.1659 78.4623 3.95752 78.7226 3.95752H80.3887C80.649 3.95752 80.8573 4.1659 80.8573 4.42638V15.6789C80.8573 15.9394 80.649 16.1478 80.3887 16.1478H78.8267C78.6705 16.1478 78.5143 16.0957 78.4102 15.9394L73.5161 9.4796C73.2558 9.11493 72.631 9.32331 72.631 9.79217V15.6268C72.631 15.8873 72.4227 16.0957 72.1624 16.0957H70.4963C70.236 16.0957 70.0277 15.8873 70.0277 15.6268V4.42638C70.0277 4.1659 70.236 3.95752 70.4963 3.95752Z" fill="white"/>
<path d="M82.8358 4.42638C82.8358 4.1659 83.0441 3.95752 83.3044 3.95752H87.5737C88.5109 3.95752 89.396 4.1138 90.2291 4.42638C91.0101 4.73895 91.739 5.15571 92.3117 5.72875C92.8844 6.3018 93.353 6.92694 93.6654 7.65627C93.9778 8.3856 94.134 9.21912 94.134 10.0526V10.1047C94.134 10.9904 93.9778 11.7718 93.6654 12.5011C93.353 13.2304 92.8844 13.9077 92.3117 14.4286C91.739 15.0017 91.0621 15.4184 90.2291 15.731C89.4481 16.0436 88.563 16.1999 87.5737 16.1999H83.3044C83.0441 16.1999 82.8358 15.9915 82.8358 15.731V4.42638ZM87.6258 13.7514C88.1985 13.7514 88.6671 13.6472 89.1357 13.4909C89.6043 13.3346 89.9687 13.0742 90.2811 12.7616C90.5935 12.449 90.8539 12.0323 91.0101 11.6155C91.1663 11.1466 91.2704 10.6778 91.2704 10.1047V10.0526C91.2704 9.53169 91.1663 9.01074 91.0101 8.54189C90.8539 8.07303 90.5935 7.70837 90.2811 7.3437C89.9687 7.03113 89.5522 6.77065 89.1357 6.56227C88.6671 6.40599 88.1985 6.3018 87.6258 6.3018H86.0118C85.7515 6.3018 85.5432 6.51018 85.5432 6.77065V13.1784C85.5432 13.4388 85.7515 13.6472 86.0118 13.6472H87.6258V13.7514Z" fill="white"/>
<path d="M100.069 3.85303H101.892C102.1 3.85303 102.256 3.95722 102.36 4.1656L107.202 15.5223C107.359 15.8349 107.098 16.1996 106.734 16.1996H105.016C104.807 16.1996 104.651 16.0954 104.547 15.887L103.662 13.7511C103.61 13.5427 103.402 13.4385 103.193 13.4385H98.6637C98.4554 13.4385 98.2992 13.5427 98.1951 13.7511L97.31 15.887C97.2579 16.0954 97.0497 16.1996 96.8414 16.1996H95.1753C94.8109 16.1996 94.6026 15.8349 94.7067 15.5223L99.6009 4.1656C99.705 3.95722 99.8612 3.85303 100.069 3.85303ZM102.308 10.3649L101.423 8.17692C101.267 7.76016 100.694 7.76016 100.538 8.17692L99.6529 10.3649C99.4967 10.6775 99.7571 11.0422 100.122 11.0422H101.892C102.204 11.0422 102.412 10.7296 102.308 10.3649Z" fill="white"/>
<path d="M114.127 16.4081C113.242 16.4081 112.409 16.2518 111.628 15.9393C110.847 15.6267 110.17 15.1578 109.649 14.5848C109.077 14.0118 108.66 13.3345 108.348 12.6052C108.035 11.8238 107.879 10.9902 107.879 10.1567V10.1046C107.879 9.21901 108.035 8.38549 108.348 7.65616C108.66 6.87473 109.077 6.19749 109.649 5.62445C110.222 5.0514 110.899 4.58254 111.68 4.26997C112.461 3.9574 113.346 3.74902 114.283 3.74902C114.856 3.74902 115.377 3.80112 115.845 3.90531C116.314 4.0095 116.73 4.11369 117.147 4.26997C117.511 4.42626 117.876 4.63464 118.24 4.84302C118.448 4.99931 118.605 5.1035 118.761 5.25978C118.969 5.41607 118.969 5.72864 118.813 5.93702L117.719 7.1873C117.563 7.39568 117.251 7.39568 117.043 7.23939C116.678 6.92682 116.314 6.71844 115.949 6.51006C115.429 6.24959 114.908 6.1454 114.283 6.1454C113.763 6.1454 113.294 6.24959 112.877 6.45797C112.461 6.66635 112.044 6.92682 111.732 7.29149C111.42 7.65616 111.159 8.07292 111.003 8.48968C110.847 8.95853 110.743 9.42739 110.743 9.94834V10.0004C110.743 10.5214 110.847 11.0423 111.003 11.5112C111.159 11.98 111.42 12.3968 111.732 12.7615C112.044 13.1261 112.409 13.3866 112.877 13.595C113.294 13.8034 113.815 13.9076 114.335 13.9076C115.012 13.9076 115.637 13.8034 116.105 13.5429C116.47 13.3345 116.834 13.074 117.199 12.7615C117.407 12.6052 117.667 12.6052 117.876 12.8136L118.917 13.8555C119.125 14.0639 119.125 14.3764 118.917 14.5327C118.709 14.7411 118.5 14.8974 118.292 15.1058C117.928 15.3662 117.563 15.6267 117.199 15.783C116.834 15.9393 116.366 16.1477 115.897 16.1998C115.272 16.356 114.7 16.4081 114.127 16.4081Z" fill="white"/>
<path d="M120.895 3.95752H122.614C122.874 3.95752 123.082 4.1659 123.082 4.42638V15.6789C123.082 15.9394 122.874 16.1478 122.614 16.1478H120.895C120.635 16.1478 120.427 15.9394 120.427 15.6789V4.42638C120.427 4.1659 120.635 3.95752 120.895 3.95752Z" fill="white"/>
<path d="M131.152 16.4082C130.215 16.4082 129.33 16.2519 128.549 15.8872C127.768 15.5746 127.091 15.1058 126.466 14.5327C125.894 13.9597 125.425 13.2825 125.113 12.5531C124.8 11.7717 124.644 10.9903 124.644 10.1047V10.0526C124.644 9.16695 124.8 8.33343 125.113 7.6041C125.425 6.82267 125.894 6.14544 126.466 5.57239C127.039 4.99934 127.716 4.53049 128.549 4.21792C129.33 3.90535 130.215 3.69697 131.152 3.69697C132.089 3.69697 132.975 3.85325 133.756 4.21792C134.537 4.53049 135.213 4.99934 135.838 5.57239C136.411 6.14544 136.88 6.82267 137.192 7.552C137.504 8.33343 137.66 9.11486 137.66 10.0005V10.0526C137.66 10.9382 137.504 11.7717 137.192 12.501C136.88 13.2825 136.411 13.9597 135.838 14.5327C135.265 15.1058 134.589 15.5746 133.756 15.8872C132.923 16.2519 132.089 16.4082 131.152 16.4082ZM131.152 13.9076C131.673 13.9076 132.194 13.8034 132.662 13.595C133.131 13.3867 133.495 13.1262 133.808 12.7615C134.12 12.3968 134.38 11.9801 134.537 11.5633C134.693 11.0945 134.797 10.6256 134.797 10.1047V10.0526C134.797 9.53162 134.693 9.01067 134.537 8.54181C134.38 8.07295 134.12 7.65619 133.756 7.29153C133.443 6.92686 133.027 6.66639 132.558 6.45801C132.09 6.24963 131.621 6.14544 131.048 6.14544C130.475 6.14544 130.007 6.24963 129.538 6.45801C129.07 6.66639 128.705 6.92686 128.393 7.29153C128.08 7.65619 127.82 8.07295 127.664 8.48971C127.508 8.95857 127.404 9.42743 127.404 9.94838V10.0005C127.404 10.5214 127.508 11.0424 127.664 11.5112C127.82 11.9801 128.08 12.3968 128.445 12.7615C128.757 13.1262 129.174 13.3867 129.642 13.595C130.111 13.8034 130.632 13.9076 131.152 13.9076ZM132.558 0.0503106L133.756 0.571262C134.068 0.727547 134.172 1.14431 133.912 1.40478L132.35 2.86345C132.246 2.96764 132.142 3.01973 132.037 3.01973H131.1C130.736 3.01973 130.475 2.60297 130.684 2.2383L131.933 0.258691C132.089 -0.00178449 132.35 -0.0538796 132.558 0.0503106Z" fill="white"/>
<path d="M139.535 3.95752H141.305C141.461 3.95752 141.617 4.00961 141.722 4.1659L146.407 10.3652C146.668 10.7299 147.293 10.5215 147.293 10.0526V4.42638C147.293 4.1659 147.501 3.95752 147.761 3.95752H149.427C149.688 3.95752 149.896 4.1659 149.896 4.42638V15.6789C149.896 15.9394 149.688 16.1478 149.427 16.1478H147.865C147.709 16.1478 147.553 16.0957 147.449 15.9394L142.555 9.4796C142.294 9.11493 141.67 9.32331 141.67 9.79217V15.6268C141.67 15.8873 141.461 16.0957 141.201 16.0957H139.535C139.275 16.0957 139.066 15.8873 139.066 15.6268V4.42638C139.066 4.1659 139.275 3.95752 139.535 3.95752Z" fill="white"/>
<path d="M19.4725 80.5374C19.4204 80.5374 19.4204 80.5374 19.4204 80.5374C19.2642 80.5895 19.0559 80.6416 18.9518 80.6937C18.8477 80.6937 18.7435 80.7458 18.6915 80.7458C18.6394 80.7458 18.5873 80.7458 18.5353 80.7458C18.275 80.7458 18.0146 80.6937 17.8064 80.5374C17.5981 80.3811 17.3898 80.2248 17.2857 79.9122C17.1816 79.6518 17.0775 79.3392 17.0775 78.9745C17.0775 78.5578 17.1816 78.141 17.3898 77.8284C17.5981 77.4638 17.9626 77.3075 18.4311 77.3075C18.6915 77.3075 19.0559 77.3596 19.4725 77.5159C19.4725 77.5159 19.4725 77.5159 19.5245 77.5159C19.6807 77.568 19.7848 77.4638 19.7848 77.3596V76.7344C19.7848 76.6824 19.7328 76.5782 19.6807 76.5782C19.6807 76.5782 19.6807 76.5782 19.6286 76.5782H19.5766H19.5245C19.5245 76.5782 19.5245 76.5782 19.4725 76.5782C19.4204 76.5782 19.3683 76.5782 19.3163 76.5261C19.2642 76.5261 19.2121 76.5261 19.1601 76.474C19.108 76.474 19.0559 76.474 19.0039 76.474C18.7956 76.474 18.5873 76.4219 18.4311 76.4219C18.275 76.4219 18.2229 76.4219 18.0667 76.4219C18.0146 76.4219 17.9626 76.4219 17.9626 76.4219C17.2857 76.474 16.7651 76.7344 16.4006 77.0991C15.932 77.568 15.7238 78.1931 15.7238 78.9745C15.7238 79.7039 15.932 80.329 16.3485 80.85C16.7651 81.3709 17.4419 81.6314 18.275 81.6314C18.6394 81.6314 19.0039 81.5793 19.4204 81.5272C19.4725 81.5272 19.4725 81.5272 19.5245 81.5272C19.5766 81.5272 19.6807 81.4751 19.7328 81.4751C19.7848 81.4751 19.8369 81.3709 19.8369 81.3188V80.6937C19.7328 80.5895 19.6286 80.4853 19.4725 80.5374Z" fill="white"/>
<path d="M6.40402 74.8592C6.35196 74.8071 6.35196 74.8071 6.29989 74.8071C6.19576 74.8071 6.1437 74.8071 6.03957 74.8071H5.9875C4.16522 74.8071 2.34293 74.8071 0.572713 74.8071C0.468583 74.8071 0.364452 74.8071 0.260322 74.8071C0.260322 74.8071 0.208256 74.8071 0.156191 74.8592C0.104126 74.9113 0.104126 74.9634 0.104126 74.9634C0.104126 75.1718 0.104126 75.4323 0.104126 75.6406C0.104126 75.6406 0.104126 75.6927 0.156191 75.6927C0.208256 75.7448 0.260322 75.7448 0.260322 75.7448H0.572713H2.55119V81.0585V81.2669C2.55119 81.4232 2.65532 81.5274 2.81152 81.5274H3.69663C3.85282 81.5274 3.95695 81.4232 3.95695 81.2669V81.0064V77.1514V75.6927H5.93543H6.03957H6.24783C6.24783 75.6927 6.29989 75.6927 6.35196 75.6406C6.40402 75.5886 6.40402 75.5886 6.40402 75.5886C6.40402 75.3802 6.40402 75.1197 6.40402 74.9113C6.40402 74.9634 6.40402 74.9113 6.40402 74.8592Z" fill="white"/>
<path d="M44.62 81.6836C44.0473 81.6836 43.5787 81.5794 43.2142 81.3711C42.7977 81.1627 42.5374 80.8501 42.3291 80.4333C42.1209 80.0166 42.0167 79.5477 42.0167 79.0789C42.0167 78.5579 42.1209 78.1412 42.3291 77.7244C42.5374 77.3076 42.8498 76.9951 43.2142 76.7867C43.6307 76.5783 44.0993 76.4741 44.62 76.4741C45.1927 76.4741 45.6613 76.5783 46.0258 76.7867C46.3902 76.9951 46.7026 77.3076 46.9109 77.7244C47.1191 78.1412 47.2232 78.61 47.2232 79.0789C47.2232 79.5998 47.1191 80.0166 46.9109 80.4333C46.7026 80.8501 46.3902 81.1627 46.0258 81.3711C45.6092 81.5794 45.1406 81.6836 44.62 81.6836ZM44.62 80.8501C44.9844 80.8501 45.2968 80.6938 45.5051 80.3292C45.7134 79.9645 45.8175 79.5477 45.8175 79.0789C45.8175 78.5579 45.7134 78.1412 45.5051 77.8286C45.2968 77.516 45.0365 77.3076 44.62 77.3076C44.2555 77.3076 43.9431 77.4639 43.7349 77.8286C43.5266 78.1412 43.4225 78.61 43.4225 79.0789C43.4225 79.5998 43.5266 80.0166 43.7349 80.3292C43.9431 80.6417 44.2035 80.8501 44.62 80.8501Z" fill="white"/>
<path d="M48.4207 81.5793H47.848V80.1206H49.3058V81.2667C49.3058 81.6835 49.2538 82.0481 49.1497 82.2565C49.0455 82.4649 48.8893 82.6733 48.6811 82.8295C48.4728 82.9858 48.1604 83.0379 47.848 83.0379V82.517C48.0042 82.517 48.1604 82.4649 48.2645 82.3086C48.3687 82.1523 48.4207 81.9439 48.4207 81.7355V81.5793Z" fill="white"/>
<path d="M69.7153 81.423C69.0906 81.5793 68.5178 81.6835 67.9972 81.6835C67.4245 81.6835 66.9559 81.5793 66.5394 81.3709C66.1228 81.1625 65.8104 80.85 65.6022 80.4332C65.3939 80.0164 65.2898 79.5476 65.2898 79.0266C65.2898 78.5578 65.3939 78.141 65.5501 77.7243C65.7584 77.3075 66.0187 76.9949 66.3832 76.7865C66.7476 76.5782 67.1641 76.4219 67.7369 76.4219C68.3616 76.4219 68.8823 76.6303 69.2988 77.047C69.6633 77.4638 69.8715 78.141 69.8715 79.1829C69.8715 79.1829 69.8715 79.235 69.8195 79.2871C69.7674 79.3392 69.7153 79.3392 69.7153 79.3392H66.8517C66.8517 79.3392 66.7997 79.3392 66.7997 79.3913V79.4434C66.7997 79.8081 67.0079 80.1206 67.0079 80.1206C67.1121 80.329 67.3203 80.4853 67.5286 80.5895C67.7369 80.6937 67.9972 80.7458 68.3616 80.7458C68.7782 80.7458 69.1947 80.6416 69.6633 80.4853C69.7153 80.4853 69.7674 80.4853 69.8195 80.4853C69.8715 80.5374 69.8715 80.5895 69.8715 80.5895V81.2146C69.8715 81.2146 69.8715 81.2667 69.8715 81.3188C69.8195 81.3709 69.7674 81.423 69.7153 81.423ZM66.8517 78.5578H68.3616C68.3616 78.5578 68.4137 78.5578 68.4658 78.5057C68.5178 78.5057 68.5178 78.4536 68.5178 78.4015C68.5178 77.9847 68.4137 77.7243 68.3096 77.568C68.1534 77.3596 67.9451 77.2554 67.7369 77.2554C67.4765 77.2554 67.2683 77.3596 67.06 77.568C66.9038 77.7763 66.7997 78.0368 66.7476 78.4015C66.7476 78.4015 66.7476 78.4536 66.7997 78.5057C66.7997 78.5578 66.8517 78.5578 66.8517 78.5578Z" fill="white"/>
<path d="M30.8748 81.423C30.25 81.5793 29.6773 81.6835 29.1566 81.6835C28.5839 81.6835 28.1153 81.5793 27.6988 81.3709C27.2823 81.1625 26.9699 80.85 26.7616 80.4332C26.5534 80.0164 26.4492 79.5476 26.4492 79.0266C26.4492 78.5578 26.5533 78.141 26.7095 77.7243C26.9178 77.3075 27.1781 76.9949 27.5426 76.7865C27.907 76.5782 28.3236 76.4219 28.8963 76.4219C29.5211 76.4219 30.0417 76.6303 30.4582 77.047C30.8227 77.4638 31.031 78.141 31.031 79.1829C31.031 79.1829 31.031 79.235 30.9789 79.2871C30.9268 79.3392 30.8748 79.3392 30.8748 79.3392H28.0112C28.0112 79.3392 27.9591 79.3392 27.9591 79.3913V79.4434C27.9591 79.8081 28.1674 80.1206 28.1674 80.1206C28.2715 80.329 28.4798 80.4853 28.688 80.5895C28.8963 80.6937 29.1566 80.7458 29.5211 80.7458C29.9376 80.7458 30.3541 80.6416 30.8227 80.4853C30.8748 80.4853 30.9268 80.4853 30.9789 80.4853C31.031 80.5374 31.031 80.5895 31.031 80.5895V81.2146C31.031 81.2146 31.031 81.2667 31.031 81.3188C30.9268 81.3709 30.9268 81.423 30.8748 81.423ZM28.0112 78.5578H29.5211C29.5211 78.5578 29.5731 78.5578 29.6252 78.5057C29.6773 78.5057 29.6773 78.4536 29.6773 78.4015C29.6773 77.9847 29.5731 77.7243 29.469 77.568C29.3128 77.3596 29.1045 77.2554 28.8963 77.2554C28.636 77.2554 28.4277 77.3596 28.2194 77.568C28.0632 77.7763 27.9591 78.0368 27.907 78.4015C27.907 78.4015 27.907 78.4536 27.9591 78.5057C27.9591 78.5578 28.0112 78.5578 28.0112 78.5578Z" fill="white"/>
<path d="M77.9938 81.423C77.369 81.5793 76.7963 81.6835 76.2756 81.6835C75.7029 81.6835 75.2343 81.5793 74.8178 81.3709C74.4013 81.1625 74.0889 80.85 73.8806 80.4332C73.6724 80.0164 73.5682 79.5476 73.5682 79.0266C73.5682 78.5578 73.6724 78.141 73.8286 77.7243C74.0368 77.3075 74.2971 76.9949 74.6616 76.7865C75.0261 76.5782 75.4426 76.4219 76.0153 76.4219C76.6401 76.4219 77.1607 76.6303 77.5773 77.047C77.9417 77.4638 78.15 78.141 78.15 79.1829C78.15 79.1829 78.15 79.235 78.0979 79.2871C78.0458 79.3392 77.9938 79.3392 77.9938 79.3392H75.1302C75.1302 79.3392 75.0781 79.3392 75.0781 79.3913V79.4434C75.0781 79.8081 75.2864 80.1206 75.2864 80.1206C75.3905 80.329 75.5988 80.4853 75.807 80.5895C76.0153 80.6937 76.2756 80.7458 76.6401 80.7458C77.0566 80.7458 77.4731 80.6416 77.9417 80.4853C77.9938 80.4853 78.0458 80.4853 78.0979 80.4853C78.15 80.5374 78.15 80.5895 78.15 80.5895V81.2146C78.15 81.2146 78.15 81.2667 78.15 81.3188C78.0459 81.3709 77.9938 81.423 77.9938 81.423ZM75.0781 78.5578H76.588C76.588 78.5578 76.6401 78.5578 76.6922 78.5057C76.7442 78.5057 76.7442 78.4536 76.7442 78.4015C76.7442 77.9847 76.6401 77.7243 76.536 77.568C76.3798 77.3596 76.1715 77.2554 75.9632 77.2554C75.7029 77.2554 75.4947 77.3596 75.2864 77.568C75.1302 77.7763 75.0261 78.0368 74.974 78.4015C74.974 78.4015 74.974 78.4536 75.0261 78.5057C75.0261 78.5578 75.0781 78.5578 75.0781 78.5578Z" fill="white"/>
<path d="M94.0819 81.6834C93.5092 81.6834 93.0406 81.5793 92.6761 81.3709C92.2596 81.1625 91.9993 80.8499 91.791 80.4332C91.5828 80.0164 91.4786 79.5476 91.4786 79.0787C91.4786 78.5577 91.5828 78.141 91.791 77.7242C91.9993 77.3075 92.3117 76.9949 92.6761 76.7865C93.0927 76.5781 93.5612 76.4739 94.0819 76.4739C94.6546 76.4739 95.1232 76.5781 95.4877 76.7865C95.9042 76.9949 96.1645 77.3075 96.3728 77.7242C96.581 78.141 96.6852 78.6098 96.6852 79.0787C96.6852 79.5996 96.581 80.0164 96.3728 80.4332C96.1645 80.8499 95.8521 81.1625 95.4877 81.3709C95.0711 81.5793 94.6026 81.6834 94.0819 81.6834ZM94.0819 80.8499C94.4464 80.8499 94.7587 80.6936 94.967 80.329C95.1753 80.0164 95.2794 79.5476 95.2794 79.0787C95.2794 78.5577 95.1753 78.141 94.967 77.8284C94.7587 77.5158 94.4984 77.3075 94.0819 77.3075C93.7174 77.3075 93.4051 77.4637 93.1968 77.8284C92.9885 78.141 92.8844 78.6098 92.8844 79.0787C92.8844 79.5996 92.9885 80.0164 93.1968 80.329C93.4051 80.6415 93.6654 80.8499 94.0819 80.8499ZM93.2489 75.6404L94.134 74.4422L94.186 74.3901C94.2381 74.3901 94.2381 74.3901 94.2902 74.3901C94.6546 74.3901 94.967 74.3901 95.3315 74.3901C95.3315 74.3901 95.3315 74.3901 95.3835 74.3901V74.4422C95.0191 74.859 94.6026 75.2237 94.2381 75.6404L94.186 75.6925C94.134 75.6925 94.134 75.6925 94.0819 75.6925C93.8216 75.6925 93.5612 75.6925 93.3009 75.6925C93.3009 75.6925 93.3009 75.6925 93.3009 75.6404C93.2489 75.6404 93.2489 75.6404 93.2489 75.6404Z" fill="white"/>
<path d="M103.922 81.5793H103.349V80.1206H104.807V81.2667C104.807 81.6835 104.755 82.0481 104.651 82.2565C104.547 82.4649 104.391 82.6733 104.183 82.8295C103.974 82.9858 103.662 83.0379 103.349 83.0379V82.517C103.506 82.517 103.662 82.4649 103.766 82.3086C103.87 82.1523 103.922 81.9439 103.922 81.7355V81.5793Z" fill="white"/>
<path d="M146.928 81.6836C146.355 81.6836 145.887 81.5794 145.522 81.3711C145.106 81.1627 144.845 80.8501 144.637 80.4333C144.429 80.0166 144.325 79.5477 144.325 79.0789C144.325 78.5579 144.429 78.1412 144.637 77.7244C144.845 77.3076 145.158 76.9951 145.522 76.7867C145.887 76.5783 146.407 76.4741 146.928 76.4741C147.501 76.4741 147.969 76.5783 148.334 76.7867C148.75 76.9951 149.011 77.3076 149.219 77.7244C149.427 78.1412 149.531 78.61 149.531 79.0789C149.531 79.5998 149.427 80.0166 149.219 80.4333C149.011 80.8501 148.698 81.1627 148.334 81.3711C147.969 81.5794 147.501 81.6836 146.928 81.6836ZM146.928 80.8501C147.293 80.8501 147.605 80.6938 147.813 80.3292C148.021 80.0166 148.126 79.5477 148.126 79.0789C148.126 78.5579 148.021 78.1412 147.813 77.8286C147.605 77.516 147.345 77.3076 146.928 77.3076C146.564 77.3076 146.251 77.4639 146.043 77.8286C145.835 78.1412 145.731 78.61 145.731 79.0789C145.731 79.5998 145.835 80.0166 146.043 80.3292C146.251 80.6417 146.564 80.8501 146.928 80.8501Z" fill="white"/>
<path d="M90.125 74.5986H89.2919C89.1357 74.5986 89.0316 74.7028 89.0316 74.8591V75.0154V75.0675V75.2238V75.2759V75.4322C89.0316 75.5884 89.1357 75.6926 89.2919 75.6926H90.125C90.2812 75.6926 90.3853 75.5884 90.3853 75.4322V75.2759V75.1717V75.0154V74.8591C90.3853 74.7028 90.2812 74.5986 90.125 74.5986Z" fill="white"/>
<path d="M90.3853 76.8907V76.8386C90.3853 76.6823 90.2812 76.5781 90.125 76.5781H89.2919C89.1357 76.5781 89.0316 76.6823 89.0316 76.8386V76.9949V77.047V77.3075V80.8499V81.1104V81.1625V81.3188C89.0316 81.4751 89.1357 81.5793 89.2919 81.5793H90.125C90.2812 81.5793 90.3853 81.4751 90.3853 81.3188V81.1625V76.8907Z" fill="white"/>
<path d="M40.7671 77.1514C40.4547 76.6825 39.9341 76.4741 39.3613 76.4741C38.9969 76.4741 38.6845 76.5783 38.3721 76.7346C38.1118 76.8909 37.8514 77.1514 37.6952 77.516V77.3076V77.0993V76.8909C37.6952 76.7346 37.5911 76.6304 37.4349 76.6304H36.6019C36.4457 76.6304 36.3416 76.7346 36.3416 76.8909V77.0993V77.1514V77.4118V82.7776V83.0381V83.1423V83.2986C36.3416 83.4549 36.4457 83.559 36.6019 83.559H37.487C37.6432 83.559 37.7473 83.4549 37.7473 83.2986V83.0902V82.8818V81.319C37.9556 81.4753 38.1118 81.6315 38.2159 81.6836C38.3721 81.7878 38.4762 81.8399 38.6324 81.8399C38.7886 81.892 38.9448 81.892 39.1531 81.892C39.8299 81.892 40.3506 81.6315 40.715 81.1106C41.0795 80.5896 41.2878 79.9124 41.2878 79.131C41.2878 78.1933 41.1316 77.5681 40.7671 77.1514ZM39.5696 80.2771C39.4134 80.6417 39.101 80.798 38.7366 80.798C38.5804 80.798 38.3721 80.7459 38.2159 80.6938C38.0597 80.6417 37.8514 80.4854 37.6952 80.2771V78.2974C37.8514 78.037 38.0597 77.8807 38.268 77.7244C38.4762 77.5681 38.6845 77.516 38.8407 77.516C39.1531 77.516 39.4134 77.6723 39.5696 77.9328C39.7258 78.1933 39.8299 78.5579 39.8299 79.0789C39.8299 79.4956 39.7258 79.9124 39.5696 80.2771Z" fill="white"/>
<path d="M11.4544 76.5781H10.6214C10.4652 76.5781 10.361 76.6823 10.361 76.8386V76.8907V77.047V77.3075V79.7559C10.1007 80.1206 9.89245 80.329 9.68419 80.4853C9.47593 80.5894 9.26767 80.6936 9.11147 80.6936C9.00734 80.6936 8.90321 80.6936 8.79908 80.6415C8.69495 80.5894 8.64289 80.5373 8.59082 80.4332C8.53876 80.329 8.53875 80.1727 8.53875 79.8601V77.3596V77.1512V77.0991V76.9428C8.53875 76.7865 8.43462 76.6823 8.27843 76.6823H7.44538C7.28919 76.6823 7.18506 76.7865 7.18506 76.9428V77.0991V77.1512V77.4116V80.2248C7.18506 80.7457 7.34125 81.1625 7.60158 81.423C7.91397 81.6834 8.22636 81.7876 8.64289 81.7876C8.95528 81.7876 9.26767 81.6834 9.58006 81.5272C9.89245 81.3709 10.1528 81.1104 10.4131 80.6936V80.902V81.1104V81.1625V81.3709C10.4131 81.5272 10.5172 81.6313 10.6734 81.6313H11.4544C11.6106 81.6313 11.7147 81.5272 11.7147 81.3709V81.3188V81.1625V80.9541V77.4116V77.2033V76.9949V76.9428C11.6627 76.6823 11.5585 76.5781 11.4544 76.5781Z" fill="white"/>
<path d="M25.0954 76.5781H24.2624C24.1062 76.5781 24.002 76.6823 24.002 76.8386V76.8907V77.047V77.3075V79.7559C23.7417 80.1206 23.5334 80.329 23.3252 80.4853C23.1169 80.5894 22.9087 80.6936 22.7525 80.6936C22.6483 80.6936 22.5442 80.6936 22.4401 80.6415C22.3359 80.5894 22.2839 80.5373 22.2318 80.4332C22.1797 80.329 22.1797 80.1727 22.1797 79.8601V77.3596V77.1512V77.0991V76.9428C22.1797 76.7865 22.0756 76.6823 21.9194 76.6823H21.0864C20.9302 76.6823 20.826 76.7865 20.826 76.9428V77.0991V77.1512V77.4116V80.2248C20.826 80.7457 20.9822 81.1625 21.2426 81.423C21.555 81.6834 21.8674 81.7876 22.2839 81.7876C22.5963 81.7876 22.9087 81.6834 23.2211 81.5272C23.5334 81.3709 23.7938 81.1104 24.0541 80.6936V80.902V81.1104V81.1625V81.3709C24.0541 81.5272 24.1582 81.6313 24.3144 81.6313H25.1475C25.3037 81.6313 25.4078 81.5272 25.4078 81.3709V81.3188V81.1625V80.9541V77.4116V77.2033V76.9949V76.9428C25.3557 76.6823 25.2516 76.5781 25.0954 76.5781Z" fill="white"/>
<path d="M61.1246 76.5781H60.2915C60.1353 76.5781 60.0312 76.6823 60.0312 76.8386V76.8907V77.047V77.3075V79.7559C59.7709 80.1206 59.5626 80.329 59.3544 80.4853C59.1461 80.5894 58.9378 80.6936 58.7816 80.6936C58.6775 80.6936 58.5734 80.6936 58.4693 80.6415C58.3651 80.5894 58.3131 80.5373 58.261 80.4332C58.2089 80.329 58.2089 80.1727 58.2089 79.8601V77.3596V77.1512V77.0991V76.9428C58.2089 76.7865 58.1048 76.6823 57.9486 76.6823H57.1156C56.9594 76.6823 56.8552 76.7865 56.8552 76.9428V77.0991V77.1512V77.4116V80.2248C56.8552 80.7457 57.0114 81.1625 57.2717 81.423C57.5841 81.6834 57.8965 81.7876 58.3131 81.7876C58.6254 81.7876 58.9378 81.6834 59.2502 81.5272C59.5626 81.3709 59.8229 81.1104 60.0833 80.6936V80.902V81.1104V81.1625V81.3709C60.0833 81.5272 60.1874 81.6313 60.3436 81.6313H61.1766C61.3328 81.6313 61.437 81.5272 61.437 81.3709V81.3188V81.1625V80.9541V77.4116V77.2033V76.9949V76.9428C61.3849 76.6823 61.2808 76.5781 61.1246 76.5781Z" fill="white"/>
<path d="M98.0388 81.5791H98.8719C99.0281 81.5791 99.1322 81.4749 99.1322 81.3187V81.2666V81.1103V80.8498V78.4013C99.3925 78.0367 99.6008 77.8283 99.8091 77.672C100.017 77.5678 100.226 77.4636 100.382 77.4636C100.486 77.4636 100.59 77.4636 100.694 77.5157C100.798 77.5678 100.85 77.6199 100.902 77.7241C100.954 77.8283 100.954 77.9846 100.954 78.2971V80.7977V81.0061V81.0582V81.2145C100.954 81.3708 101.059 81.4749 101.215 81.4749H102.048C102.204 81.4749 102.308 81.3708 102.308 81.2145V81.0582V81.0061V80.7456V77.9325C102.308 77.4115 102.152 76.9948 101.892 76.7343C101.579 76.4738 101.267 76.3696 100.85 76.3696C100.538 76.3696 100.226 76.4738 99.9132 76.6301C99.6008 76.7864 99.3405 77.0469 99.0801 77.4636V77.2552V77.099V77.0469V76.8385C99.0801 76.6822 98.976 76.578 98.8198 76.578H97.9868C97.8306 76.578 97.7264 76.6822 97.7264 76.8385V76.8906V77.0469V77.2552V80.7977V81.0061V81.2145V81.2666C97.7785 81.4228 97.8826 81.5791 98.0388 81.5791Z" fill="white"/>
<path d="M35.5086 76.8388V76.6304C35.5086 76.6304 35.5086 76.5783 35.4565 76.5262C35.4044 76.4741 35.4044 76.4741 35.3524 76.4741C35.3003 76.4741 35.2482 76.4741 35.2482 76.4741C34.8838 76.4741 34.5714 76.5783 34.3111 76.7346C34.0507 76.943 33.7904 77.2035 33.6342 77.516V77.3076V77.0993V76.8909C33.6342 76.7346 33.5301 76.6304 33.3739 76.6304C33.1136 76.6304 32.8012 76.6304 32.5408 76.6304C32.5408 76.6304 32.5408 76.6304 32.4888 76.6304C32.3846 76.6304 32.2805 76.7346 32.2805 76.8388C32.2805 76.8388 32.2805 76.8388 32.2805 76.8909V76.943C32.2805 76.9951 32.2805 77.0993 32.2805 77.1514C32.2805 77.2555 32.2805 77.3076 32.2805 77.4118C32.2805 78.61 32.2805 79.8082 32.2805 80.9543C32.2805 81.0585 32.2805 81.1106 32.2805 81.2148C32.2805 81.2669 32.2805 81.3711 32.2805 81.4232C32.2805 81.5794 32.3846 81.6836 32.5408 81.6836H33.3739C33.3739 81.6836 33.3739 81.6836 33.426 81.6836C33.426 81.6836 33.426 81.6836 33.478 81.6836C33.478 81.6836 33.478 81.6836 33.5301 81.6836C33.5301 81.6836 33.5301 81.6836 33.5301 81.6315C33.5301 81.6315 33.5301 81.6315 33.5301 81.5794V81.5273V81.319V81.1106C33.5301 80.2771 33.5301 79.4956 33.5301 78.6621C33.6863 78.4016 33.8945 78.1933 34.1028 78.037C34.3111 77.8807 34.5714 77.8286 34.8317 77.8286C34.9358 77.8286 35.04 77.8286 35.1441 77.8807C35.3003 77.9328 35.3524 77.8286 35.3524 77.7244L35.5086 76.8388Z" fill="white"/>
<path d="M143.908 76.8388V76.6304C143.908 76.6304 143.908 76.5783 143.856 76.5262C143.804 76.4741 143.804 76.4741 143.752 76.4741C143.7 76.4741 143.648 76.4741 143.648 76.4741C143.284 76.4741 142.971 76.5783 142.711 76.7346C142.451 76.943 142.19 77.2035 142.034 77.516V77.3076V77.0993V76.8909C142.034 76.7346 141.93 76.6304 141.774 76.6304C141.513 76.6304 141.201 76.6304 140.941 76.6304C140.941 76.6304 140.941 76.6304 140.889 76.6304C140.784 76.6304 140.68 76.7346 140.68 76.8388C140.68 76.8388 140.68 76.8388 140.68 76.8909V76.943C140.68 76.9951 140.68 77.0993 140.68 77.1514C140.68 77.2555 140.68 77.3076 140.68 77.4118C140.68 78.61 140.68 79.8082 140.68 80.9543C140.68 81.0585 140.68 81.1106 140.68 81.2148C140.68 81.2669 140.68 81.3711 140.68 81.4232C140.68 81.5794 140.784 81.6836 140.941 81.6836H141.774C141.774 81.6836 141.774 81.6836 141.826 81.6836C141.826 81.6836 141.826 81.6836 141.878 81.6836C141.878 81.6836 141.878 81.6836 141.93 81.6836C141.93 81.6836 141.93 81.6836 141.93 81.6315C141.93 81.6315 141.93 81.6315 141.93 81.5794V81.5273V81.319V81.1106C141.93 80.2771 141.93 79.4956 141.93 78.6621C142.086 78.4016 142.294 78.1933 142.503 78.037C142.711 77.8807 142.971 77.8286 143.231 77.8286C143.336 77.8286 143.44 77.8286 143.544 77.8807C143.7 77.9328 143.752 77.8286 143.752 77.7244L143.908 76.8388Z" fill="white"/>
<path d="M19.4724 76.5781C19.4204 76.5781 19.4204 76.5781 19.3683 76.5781C19.4204 76.5781 19.5245 76.6302 19.5765 76.6302C19.5245 76.6302 19.4724 76.5781 19.4724 76.5781Z" fill="white"/>
<path d="M19.16 76.5259C19.2121 76.5259 19.2642 76.5259 19.3162 76.578C19.2642 76.578 19.2121 76.5259 19.16 76.5259Z" fill="white"/>
<path d="M18.8477 76.4741C18.8997 76.4741 18.9518 76.4741 19.0039 76.4741C18.9518 76.5262 18.8997 76.4741 18.8477 76.4741Z" fill="white"/>
<path d="M82.7837 80.5374C82.7317 80.5374 82.7317 80.5374 82.7317 80.5374C82.5755 80.5895 82.3672 80.6416 82.2631 80.6937C82.1589 80.6937 82.0548 80.7458 82.0028 80.7458C81.9507 80.7458 81.8986 80.7458 81.8466 80.7458C81.5862 80.7458 81.3259 80.6937 81.1176 80.5374C80.9094 80.3811 80.7011 80.2248 80.597 79.9122C80.4929 79.6518 80.3887 79.3392 80.3887 78.9745C80.3887 78.5578 80.4929 78.141 80.7011 77.8284C80.9094 77.4638 81.2738 77.3075 81.7424 77.3075C82.0028 77.3075 82.3672 77.3596 82.7837 77.5159C82.7837 77.5159 82.7837 77.5159 82.8358 77.5159C82.992 77.568 83.0961 77.4638 83.0961 77.3596V76.7344C83.0961 76.6824 83.0441 76.5782 82.992 76.5782C82.992 76.5782 82.992 76.5782 82.9399 76.5782H82.8879H82.8358C82.8358 76.5782 82.8358 76.5782 82.7837 76.5782C82.7317 76.5782 82.6796 76.5782 82.6275 76.5261C82.5755 76.5261 82.5234 76.5261 82.4713 76.474C82.4193 76.474 82.3672 76.474 82.3151 76.474C82.1069 76.474 81.8986 76.4219 81.7424 76.4219C81.5862 76.4219 81.5342 76.4219 81.378 76.4219C81.3259 76.4219 81.2738 76.4219 81.2738 76.4219C80.597 76.474 80.0763 76.7344 79.7119 77.0991C79.2433 77.568 79.035 78.1931 79.035 78.9745C79.035 79.7039 79.2433 80.329 79.6598 80.85C80.0763 81.3709 80.7532 81.6314 81.5862 81.6314C81.9507 81.6314 82.3151 81.5793 82.7317 81.5272C82.7837 81.5272 82.7837 81.5272 82.8358 81.5272C82.8879 81.5272 82.992 81.4751 83.0441 81.4751C83.0961 81.4751 83.1482 81.3709 83.1482 81.3188V80.6937C83.0441 80.5895 82.9399 80.4853 82.7837 80.5374Z" fill="white"/>
<path d="M87.6259 80.5374C87.5738 80.5374 87.5738 80.5374 87.5738 80.5374C87.4176 80.5895 87.2094 80.6416 87.1052 80.6937C87.0011 80.6937 86.897 80.7458 86.8449 80.7458C86.7928 80.7458 86.7408 80.7458 86.6887 80.7458C86.4284 80.7458 86.1681 80.6937 85.9598 80.5374C85.7515 80.3811 85.5433 80.2248 85.4392 79.9122C85.335 79.6518 85.2309 79.3392 85.2309 78.9745C85.2309 78.5578 85.335 78.141 85.5433 77.8284C85.7515 77.4638 86.116 77.3075 86.5846 77.3075C86.8449 77.3075 87.2094 77.3596 87.6259 77.5159C87.6259 77.5159 87.6259 77.5159 87.678 77.5159C87.8341 77.568 87.9383 77.4638 87.9383 77.3596V76.7344C87.9383 76.6824 87.8862 76.5782 87.8342 76.5782C87.8342 76.5782 87.8342 76.5782 87.7821 76.5782H87.73H87.678C87.678 76.5782 87.678 76.5782 87.6259 76.5782C87.5738 76.5782 87.5218 76.5782 87.4697 76.5261C87.4176 76.5261 87.3656 76.5261 87.3135 76.474C87.2614 76.474 87.2094 76.474 87.1573 76.474C86.949 76.474 86.7408 76.4219 86.5846 76.4219C86.4284 76.4219 86.3763 76.4219 86.2201 76.4219C86.1681 76.4219 86.116 76.4219 86.116 76.4219C85.4391 76.474 84.9185 76.7344 84.554 77.0991C84.0855 77.568 83.8772 78.1931 83.8772 78.9745C83.8772 79.7039 84.0855 80.329 84.502 80.85C84.9185 81.3709 85.5953 81.6314 86.4284 81.6314C86.7928 81.6314 87.1573 81.5793 87.5738 81.5272C87.6259 81.5272 87.6259 81.5272 87.678 81.5272C87.73 81.5272 87.8342 81.4751 87.8862 81.4751C87.9383 81.4751 87.9903 81.3709 87.9903 81.3188V80.6937C87.8862 80.5895 87.7821 80.4853 87.6259 80.5374Z" fill="white"/>
<path d="M55.814 80.7981C55.7619 80.7981 55.7619 80.746 55.7098 80.746H55.6578C55.5537 80.746 55.5016 80.746 55.3975 80.746C55.1371 80.746 54.9809 80.6939 54.8247 80.5376C54.7206 80.4334 54.6165 80.1729 54.6165 79.8083V77.3598H55.5537C55.5537 77.3598 55.6057 77.3598 55.6578 77.3077C55.6578 77.2556 55.7098 77.2556 55.7098 77.2556C55.7098 77.0472 55.7098 76.8389 55.7098 76.6305C55.7098 76.6305 55.7099 76.5784 55.6578 76.5263C55.6057 76.4742 55.6057 76.4742 55.6057 76.4742C55.5016 76.4742 54.6165 76.4742 54.6165 76.4742V75.5886V75.5365C54.6165 75.4844 54.5644 75.4844 54.5644 75.4844H54.5123C54.1479 75.5365 53.7314 75.5886 53.3669 75.5886C53.3669 75.5886 53.3148 75.5886 53.3148 75.6407C53.2628 75.6928 53.2628 75.7449 53.2628 75.7449C53.2628 76.0053 53.2628 76.2137 53.2628 76.4742H53.1066H52.8983C52.8463 76.4742 52.8463 76.4742 52.7942 76.4742C52.7942 76.4742 52.7421 76.4742 52.7421 76.5263C52.6901 76.5784 52.6901 76.5784 52.6901 76.6305C52.6901 76.8389 52.6901 77.0472 52.6901 77.2556C52.6901 77.2556 52.6901 77.3077 52.7421 77.3077C52.7942 77.3598 52.8463 77.3598 52.8463 77.3598H52.8983H53.2628V79.9646C53.2628 80.3813 53.3148 80.6939 53.471 80.9023C53.5752 81.1106 53.7834 81.2669 54.0438 81.4232C54.3041 81.5274 54.6165 81.6316 55.0851 81.6316C55.2413 81.6316 55.4495 81.5795 55.6578 81.5274C55.7099 81.5274 55.7098 81.5274 55.7619 81.5274C55.814 81.5274 55.866 81.4753 55.866 81.3711V81.2669V80.8502C55.866 80.8502 55.866 80.7981 55.814 80.7981Z" fill="white"/>
<path d="M116.626 76.5781H115.793C115.637 76.5781 115.533 76.6823 115.533 76.8386V76.8907V77.047V77.3075V79.7559C115.272 80.1206 115.064 80.329 114.856 80.4853C114.648 80.5894 114.439 80.6936 114.283 80.6936C114.179 80.6936 114.075 80.6936 113.971 80.6415C113.867 80.5894 113.815 80.5373 113.763 80.4332C113.711 80.329 113.711 80.1727 113.711 79.8601V77.3596V77.1512V77.0991V76.9428C113.711 76.7865 113.606 76.6823 113.45 76.6823H112.617C112.461 76.6823 112.357 76.7865 112.357 76.9428V77.0991V77.1512V77.4116V80.2248C112.357 80.7457 112.513 81.1625 112.773 81.423C113.086 81.6834 113.398 81.7876 113.815 81.7876C114.127 81.7876 114.439 81.6834 114.752 81.5272C115.064 81.3709 115.325 81.1104 115.585 80.6936V80.902V81.1104V81.1625V81.3709C115.585 81.5272 115.689 81.6313 115.845 81.6313H116.678C116.834 81.6313 116.939 81.5272 116.939 81.3709V81.3188V81.1625V80.9541V77.4116V77.2033V76.9949V76.9428C116.886 76.6823 116.782 76.5781 116.626 76.5781Z" fill="white"/>
<path d="M129.226 76.5781H128.393C128.237 76.5781 128.133 76.6823 128.133 76.8386V76.8907V77.047V77.3075V79.7559C127.872 80.1206 127.664 80.329 127.456 80.4853C127.248 80.5894 127.039 80.6936 126.883 80.6936C126.779 80.6936 126.675 80.6936 126.571 80.6415C126.467 80.5894 126.414 80.5373 126.362 80.4332C126.31 80.329 126.31 80.1727 126.31 79.8601V77.3596V77.1512V77.0991V76.9428C126.31 76.7865 126.206 76.6823 126.05 76.6823H125.217C125.061 76.6823 124.957 76.7865 124.957 76.9428V77.0991V77.1512V77.4116V80.2248C124.957 80.7457 125.113 81.1625 125.373 81.423C125.686 81.6834 125.998 81.7876 126.414 81.7876C126.727 81.7876 127.039 81.6834 127.352 81.5272C127.664 81.3709 127.924 81.1104 128.185 80.6936V80.902V81.1104V81.1625V81.3709C128.185 81.5272 128.289 81.6313 128.445 81.6313H129.278C129.434 81.6313 129.538 81.5272 129.538 81.3709V81.3188V81.1625V80.9541V77.4116V77.2033V76.9949V76.9428C129.486 76.6823 129.382 76.5781 129.226 76.5781Z" fill="white"/>
<path d="M138.858 76.5781H138.025C137.869 76.5781 137.765 76.6823 137.765 76.8386V76.8907V77.047V77.3075V79.7559C137.504 80.1206 137.296 80.329 137.088 80.4853C136.879 80.5894 136.671 80.6936 136.515 80.6936C136.411 80.6936 136.307 80.6936 136.203 80.6415C136.099 80.5894 136.046 80.5373 135.994 80.4332C135.942 80.329 135.942 80.1727 135.942 79.8601V77.3596V77.1512V77.0991V76.9428C135.942 76.7865 135.838 76.6823 135.682 76.6823H134.849C134.693 76.6823 134.589 76.7865 134.589 76.9428V77.0991V77.1512V77.4116V80.2248C134.589 80.7457 134.745 81.1625 135.005 81.423C135.318 81.6834 135.63 81.7876 136.046 81.7876C136.359 81.7876 136.671 81.6834 136.984 81.5272C137.296 81.3709 137.556 81.1104 137.817 80.6936V80.902V81.1104V81.1625V81.3709C137.817 81.5272 137.921 81.6313 138.077 81.6313H138.91C139.066 81.6313 139.17 81.5272 139.17 81.3709V81.3188V81.1625V80.9541V77.4116V77.2033V76.9949V76.9428C139.118 76.6823 139.014 76.5781 138.858 76.5781Z" fill="white"/>
<path d="M111.316 80.7981C111.264 80.7981 111.264 80.746 111.211 80.746H111.159C111.055 80.746 111.003 80.746 110.899 80.746C110.639 80.746 110.483 80.6939 110.326 80.5376C110.17 80.3813 110.118 80.1729 110.118 79.8083V77.3598H110.795H111.055C111.055 77.3598 111.107 77.3598 111.159 77.3077C111.159 77.2556 111.211 77.2556 111.211 77.2556C111.211 77.0472 111.211 76.8389 111.211 76.6305C111.211 76.6305 111.211 76.5784 111.159 76.5263C111.107 76.4742 111.107 76.4742 111.107 76.4742C111.003 76.4742 110.899 76.4742 110.795 76.4742H110.118V75.5886V75.5365C110.118 75.4844 110.066 75.4844 110.066 75.4844H110.014C109.649 75.5365 109.233 75.5886 108.869 75.5886C108.869 75.5886 108.816 75.5886 108.816 75.6407C108.764 75.6928 108.764 75.7449 108.764 75.7449C108.764 76.0053 108.764 76.2137 108.764 76.4742H108.608H108.4C108.348 76.4742 108.348 76.4742 108.296 76.4742C108.296 76.4742 108.244 76.4742 108.244 76.5263C108.192 76.5784 108.192 76.5784 108.192 76.6305C108.192 76.8389 108.192 77.0472 108.192 77.2556C108.192 77.2556 108.192 77.3077 108.244 77.3077C108.296 77.3598 108.348 77.3598 108.348 77.3598H108.4H108.764V79.9646C108.764 80.3813 108.816 80.6939 108.973 80.9023C109.077 81.1106 109.285 81.2669 109.545 81.4232C109.806 81.5274 110.118 81.6316 110.587 81.6316C110.743 81.6316 110.951 81.5795 111.159 81.5274C111.211 81.5274 111.211 81.5274 111.263 81.5274C111.316 81.5274 111.368 81.4753 111.368 81.3711V81.2669V80.8502C111.368 80.8502 111.368 80.7981 111.316 80.7981Z" fill="white"/>
<path d="M133.547 80.7981C133.495 80.7981 133.495 80.746 133.443 80.746H133.391C133.287 80.746 133.235 80.746 133.131 80.746C132.871 80.746 132.714 80.6939 132.558 80.5376C132.402 80.3813 132.35 80.1729 132.35 79.8083V77.3598H133.027H133.287C133.287 77.3598 133.339 77.3598 133.391 77.3077C133.391 77.2556 133.443 77.2556 133.443 77.2556C133.443 77.0472 133.443 76.8389 133.443 76.6305C133.443 76.6305 133.443 76.5784 133.391 76.5263C133.339 76.4742 133.339 76.4742 133.339 76.4742C133.235 76.4742 133.131 76.4742 133.027 76.4742H132.35V75.5886V75.5365C132.35 75.4844 132.298 75.4844 132.298 75.4844H132.246C131.881 75.5365 131.465 75.5886 131.1 75.5886C131.1 75.5886 131.048 75.5886 131.048 75.6407C130.996 75.6928 130.996 75.7449 130.996 75.7449C130.996 76.0053 130.996 76.2137 130.996 76.4742H130.84H130.684C130.632 76.4742 130.632 76.4742 130.58 76.4742C130.58 76.4742 130.528 76.4742 130.528 76.5263C130.476 76.5784 130.476 76.5784 130.476 76.6305C130.476 76.8389 130.476 77.0472 130.476 77.2556C130.476 77.2556 130.476 77.3077 130.528 77.3077C130.58 77.3598 130.632 77.3598 130.632 77.3598H130.684H131.048V79.9646C131.048 80.3813 131.1 80.6939 131.257 80.9023C131.361 81.1106 131.569 81.2669 131.829 81.4232C132.09 81.5274 132.402 81.6316 132.871 81.6316C133.027 81.6316 133.235 81.5795 133.443 81.5274C133.495 81.5274 133.495 81.5274 133.547 81.5274C133.599 81.5274 133.652 81.4753 133.652 81.3711V81.2669V80.8502C133.6 80.8502 133.599 80.7981 133.547 80.7981Z" fill="white"/>
<path d="M124.488 74.4423C124.436 74.3902 124.436 74.3902 124.384 74.3902C124.019 74.286 123.603 74.2339 123.239 74.2339C122.666 74.2339 122.197 74.3902 121.833 74.7027C121.52 75.0153 121.364 75.4842 121.364 76.2135V76.5782C121.26 76.5782 121.156 76.5782 121.052 76.5782C120.948 76.5782 120.844 76.5782 120.739 76.5782C120.739 76.5782 120.687 76.5782 120.687 76.6303C120.635 76.6824 120.635 76.6824 120.635 76.7345C120.635 76.9428 120.635 77.1512 120.635 77.3596C120.635 77.3596 120.635 77.4117 120.687 77.4117C120.739 77.4638 120.791 77.4638 120.791 77.4638H121.052H121.364V81.2146V81.3709C121.364 81.5272 121.468 81.6314 121.624 81.6314H122.458C122.614 81.6314 122.718 81.5272 122.718 81.3709V81.1625V80.9542V77.5159H122.822H123.603H123.863C123.863 77.5159 123.915 77.5159 123.967 77.4638C123.967 77.4117 124.019 77.4117 124.019 77.4117C124.019 77.2033 124.019 76.9949 124.019 76.7865C124.019 76.7865 124.019 76.7344 123.967 76.6824C123.915 76.6303 123.915 76.6303 123.915 76.6303C123.811 76.6303 123.707 76.6303 123.603 76.6303C123.291 76.6303 123.03 76.6303 122.718 76.6303V76.2135C122.718 75.9009 122.77 75.6405 122.822 75.5363C122.874 75.4321 122.978 75.3279 123.082 75.2758C123.186 75.2237 123.291 75.1716 123.447 75.1716C123.707 75.1716 123.967 75.2237 124.28 75.3279C124.332 75.3279 124.384 75.3279 124.436 75.3279C124.488 75.2758 124.488 75.2237 124.488 75.2237V74.5986C124.488 74.5465 124.488 74.4944 124.488 74.4423Z" fill="white"/>
<path d="M71.1211 81.1106V81.2668C71.1211 81.4231 71.2252 81.5273 71.3814 81.5273H72.2145C72.3707 81.5273 72.4748 81.4231 72.4748 81.2668V81.0585V80.8501V75.1196V74.9112V74.7029C72.4748 74.5466 72.3707 74.4424 72.2145 74.4424H71.3814C71.2252 74.4424 71.1211 74.5466 71.1211 74.7029V74.8591V74.9112V75.1717V80.9022V81.1627V81.1106Z" fill="white"/>
</svg>
