<svg width="60" height="61" viewBox="0 0 60 61" fill="none" xmlns="http://www.w3.org/2000/svg">
<g clip-path="url(#clip0_165_2202)">
<path d="M1.28047 29.8725C1.27906 34.953 2.60656 39.9138 5.13078 44.2863L1.03906 59.2259L16.3278 55.2171C20.5565 57.5191 25.2944 58.7253 30.1091 58.7257H30.1217C46.0159 58.7257 58.9541 45.7922 58.9609 29.8952C58.9639 22.192 55.9667 14.9484 50.5213 9.49874C45.0767 4.04952 37.8357 1.04694 30.1206 1.04343C14.2245 1.04343 1.28727 13.9762 1.2807 29.8725" fill="url(#paint0_linear_165_2202)"/>
<path d="M0.250781 29.8631C0.249141 35.1265 1.62422 40.2647 4.23844 44.7937L0 60.2688L15.837 56.1164C20.2005 58.4955 25.1135 59.7499 30.1127 59.7518H30.1256C46.59 59.7518 59.993 46.353 60 29.887C60.0028 21.907 56.8978 14.403 51.2578 8.75813C45.6171 3.11391 38.1171 0.00328125 30.1256 0C13.6584 0 0.257344 13.3969 0.250781 29.8631ZM9.68227 44.0138L9.09094 43.0751C6.60516 39.1226 5.29312 34.5551 5.295 29.865C5.30016 16.1787 16.4386 5.04375 30.135 5.04375C36.7678 5.04656 43.0012 7.63219 47.6897 12.3234C52.3779 17.0152 54.9577 23.2519 54.956 29.8852C54.9499 43.5715 43.8112 54.7078 30.1256 54.7078H30.1158C25.6596 54.7055 21.2892 53.5087 17.4778 51.2473L16.5708 50.7094L7.17281 53.1734L9.68227 44.0138Z" fill="url(#paint1_linear_165_2202)"/>
<path d="M22.6588 17.3784C22.0996 16.1355 21.5111 16.1105 20.9793 16.0887C20.5438 16.0699 20.046 16.0713 19.5487 16.0713C19.0509 16.0713 18.242 16.2586 17.5584 17.0051C16.874 17.7523 14.9456 19.5579 14.9456 23.2303C14.9456 26.9027 17.6205 30.4521 17.9934 30.9506C18.3667 31.4482 23.1574 39.2257 30.7445 42.2177C37.0502 44.7042 38.3334 44.2097 39.7019 44.085C41.0706 43.9608 44.1184 42.2798 44.7402 40.5368C45.3625 38.794 45.3625 37.3001 45.1759 36.9879C44.9894 36.6769 44.4916 36.4901 43.7451 36.1169C42.9986 35.7438 39.3285 33.9377 38.6444 33.6886C37.96 33.4397 37.4624 33.3155 36.9646 34.0629C36.4668 34.8091 35.0374 36.4901 34.6016 36.9879C34.1664 37.4869 33.7307 37.549 32.9845 37.1756C32.2375 36.8011 29.8335 36.0138 26.9814 33.4711C24.7624 31.4925 23.2642 29.0491 22.8288 28.3017C22.3933 27.5555 22.7821 27.1509 23.1564 26.779C23.4918 26.4445 23.9031 25.9073 24.2767 25.4716C24.6489 25.0357 24.7731 24.7247 25.022 24.2269C25.2712 23.7286 25.1465 23.2926 24.9602 22.9193C24.7731 22.5459 23.3226 18.8543 22.6588 17.3784Z" fill="white"/>
</g>
<defs>
<linearGradient id="paint0_linear_165_2202" x1="2897.13" y1="5819.29" x2="2897.13" y2="1.04343" gradientUnits="userSpaceOnUse">
<stop stop-color="#1FAF38"/>
<stop offset="1" stop-color="#60D669"/>
</linearGradient>
<linearGradient id="paint1_linear_165_2202" x1="3000" y1="6026.88" x2="3000" y2="0" gradientUnits="userSpaceOnUse">
<stop stop-color="#F9F9F9"/>
<stop offset="1" stop-color="white"/>
</linearGradient>
<clipPath id="clip0_165_2202">
<rect width="60" height="60.4688" fill="white"/>
</clipPath>
</defs>
</svg>
